<svg xmlns="http://www.w3.org/2000/svg" xmlns:xlink="http://www.w3.org/1999/xlink" contentStyleType="text/css" height="963px" preserveAspectRatio="none" style="width:441px;height:963px;background:#FFFFFF;" version="1.1" viewBox="0 0 441 963" width="441px" zoomAndPan="magnify"><defs/><g><!--cluster Utils--><g id="cluster_Utils"><path d="M8.5,719 L39.8379,719 A3.75,3.75 0 0 1 42.3379,721.5 L49.3379,742.6094 L431.5,742.6094 A2.5,2.5 0 0 1 434,745.1094 L434,953.5 A2.5,2.5 0 0 1 431.5,956 L8.5,956 A2.5,2.5 0 0 1 6,953.5 L6,721.5 A2.5,2.5 0 0 1 8.5,719 " fill="none" style="stroke:#000000;stroke-width:1.5;"/><line style="stroke:#000000;stroke-width:1.5;" x1="6" x2="49.3379" y1="742.6094" y2="742.6094"/><text fill="#000000" font-family="sans-serif" font-size="14" font-weight="bold" lengthAdjust="spacing" textLength="30.3379" x="10" y="735.5332">Utils</text></g><!--cluster Types--><g id="cluster_Types"><path d="M124,437 L165.4619,437 A3.75,3.75 0 0 1 167.9619,439.5 L174.9619,460.6094 L316,460.6094 A2.5,2.5 0 0 1 318.5,463.1094 L318.5,692.5 A2.5,2.5 0 0 1 316,695 L124,695 A2.5,2.5 0 0 1 121.5,692.5 L121.5,439.5 A2.5,2.5 0 0 1 124,437 " fill="none" style="stroke:#000000;stroke-width:1.5;"/><line style="stroke:#000000;stroke-width:1.5;" x1="121.5" x2="174.9619" y1="460.6094" y2="460.6094"/><text fill="#000000" font-family="sans-serif" font-size="14" font-weight="bold" lengthAdjust="spacing" textLength="40.4619" x="125.5" y="453.5332">Types</text></g><!--cluster Routes--><g id="cluster_Routes"><path d="M66.5,124 L114.9482,124 A3.75,3.75 0 0 1 117.4482,126.5 L124.4482,147.6094 L373.5,147.6094 A2.5,2.5 0 0 1 376,150.1094 L376,410.5 A2.5,2.5 0 0 1 373.5,413 L66.5,413 A2.5,2.5 0 0 1 64,410.5 L64,126.5 A2.5,2.5 0 0 1 66.5,124 " fill="none" style="stroke:#000000;stroke-width:1.5;"/><line style="stroke:#000000;stroke-width:1.5;" x1="64" x2="124.4482" y1="147.6094" y2="147.6094"/><text fill="#000000" font-family="sans-serif" font-size="14" font-weight="bold" lengthAdjust="spacing" textLength="47.4482" x="68" y="140.5332">Routes</text></g><!--cluster Configs--><g id="cluster_Configs"><path d="M144.5,6 L197.6035,6 A3.75,3.75 0 0 1 200.1035,8.5 L207.1035,29.6094 L295.5,29.6094 A2.5,2.5 0 0 1 298,32.1094 L298,97.5 A2.5,2.5 0 0 1 295.5,100 L144.5,100 A2.5,2.5 0 0 1 142,97.5 L142,8.5 A2.5,2.5 0 0 1 144.5,6 " fill="none" style="stroke:#000000;stroke-width:1.5;"/><line style="stroke:#000000;stroke-width:1.5;" x1="142" x2="207.1035" y1="29.6094" y2="29.6094"/><text fill="#000000" font-family="sans-serif" font-size="14" font-weight="bold" lengthAdjust="spacing" textLength="52.1035" x="146" y="22.5332">Configs</text></g><!--class Database--><g id="elem_Database"><rect codeLine="10" fill="#F1F1F1" height="65.6094" id="Database" rx="2.5" ry="2.5" style="stroke:#181818;stroke-width:0.5;" width="246.2334" x="97" y="755"/><ellipse cx="185.9014" cy="771" fill="#ADD1B2" rx="11" ry="11" style="stroke:#181818;stroke-width:1.0;"/><path d="M188.667,766.875 Q188.8232,766.6563 189.0107,766.5469 Q189.1982,766.4375 189.417,766.4375 Q189.792,766.4375 190.0264,766.7031 Q190.2607,766.9531 190.2607,767.5625 L190.2607,769.0156 Q190.2607,769.625 190.0264,769.8906 Q189.792,770.1563 189.417,770.1563 Q189.0732,770.1563 188.8701,769.9531 Q188.667,769.7656 188.5576,769.25 Q188.5107,768.8906 188.3232,768.7031 Q187.9951,768.3281 187.3857,768.1094 Q186.7764,767.8906 186.1514,767.8906 Q185.3857,767.8906 184.7451,768.2188 Q184.1201,768.5469 183.6201,769.2969 Q183.1357,770.0469 183.1357,771.0781 L183.1357,772.1719 Q183.1357,773.4063 184.0264,774.2344 Q184.917,775.0469 186.5107,775.0469 Q187.4482,775.0469 188.1045,774.7969 Q188.4951,774.6406 188.917,774.2031 Q189.1826,773.9375 189.3232,773.8594 Q189.4795,773.7813 189.6826,773.7813 Q190.0107,773.7813 190.2607,774.0469 Q190.5264,774.2969 190.5264,774.6406 Q190.5264,774.9844 190.1826,775.3906 Q189.6826,775.9688 188.8857,776.2969 Q187.8076,776.75 186.5107,776.75 Q184.9951,776.75 183.792,776.125 Q182.8076,775.625 182.1201,774.5625 Q181.4326,773.4844 181.4326,772.2031 L181.4326,771.0469 Q181.4326,769.7188 182.042,768.5781 Q182.667,767.4219 183.7607,766.8125 Q184.8545,766.1875 186.0889,766.1875 Q186.8232,766.1875 187.4639,766.3594 Q188.1201,766.5156 188.667,766.875 Z " fill="#000000"/><text fill="#000000" font-family="sans-serif" font-size="14" lengthAdjust="spacing" textLength="59.9307" x="206.4014" y="776.7285">Database</text><line style="stroke:#181818;stroke-width:0.5;" x1="98" x2="342.2334" y1="787" y2="787"/><line style="stroke:#181818;stroke-width:0.5;" x1="98" x2="342.2334" y1="795" y2="795"/><ellipse cx="108" cy="809.3047" fill="#84BE84" rx="3" ry="3" style="stroke:#038048;stroke-width:1.0;"/><text fill="#000000" font-family="sans-serif" font-size="14" lengthAdjust="spacing" text-decoration="underline" textLength="220.2334" x="117" y="813.5332">async ensureDatabase(): Database</text></g><!--class AdvancedQuery--><g id="elem_AdvancedQuery"><rect codeLine="14" fill="#F1F1F1" height="83.2188" id="AdvancedQuery" rx="2.5" ry="2.5" style="stroke:#181818;stroke-width:0.5;" width="396.3574" x="22" y="856.5"/><ellipse cx="165.7324" cy="872.5" fill="#ADD1B2" rx="11" ry="11" style="stroke:#181818;stroke-width:1.0;"/><path d="M168.498,868.375 Q168.6543,868.1563 168.8418,868.0469 Q169.0293,867.9375 169.248,867.9375 Q169.623,867.9375 169.8574,868.2031 Q170.0918,868.4531 170.0918,869.0625 L170.0918,870.5156 Q170.0918,871.125 169.8574,871.3906 Q169.623,871.6563 169.248,871.6563 Q168.9043,871.6563 168.7012,871.4531 Q168.498,871.2656 168.3887,870.75 Q168.3418,870.3906 168.1543,870.2031 Q167.8262,869.8281 167.2168,869.6094 Q166.6074,869.3906 165.9824,869.3906 Q165.2168,869.3906 164.5762,869.7188 Q163.9512,870.0469 163.4512,870.7969 Q162.9668,871.5469 162.9668,872.5781 L162.9668,873.6719 Q162.9668,874.9063 163.8574,875.7344 Q164.748,876.5469 166.3418,876.5469 Q167.2793,876.5469 167.9355,876.2969 Q168.3262,876.1406 168.748,875.7031 Q169.0137,875.4375 169.1543,875.3594 Q169.3105,875.2813 169.5137,875.2813 Q169.8418,875.2813 170.0918,875.5469 Q170.3574,875.7969 170.3574,876.1406 Q170.3574,876.4844 170.0137,876.8906 Q169.5137,877.4688 168.7168,877.7969 Q167.6387,878.25 166.3418,878.25 Q164.8262,878.25 163.623,877.625 Q162.6387,877.125 161.9512,876.0625 Q161.2637,874.9844 161.2637,873.7031 L161.2637,872.5469 Q161.2637,871.2188 161.873,870.0781 Q162.498,868.9219 163.5918,868.3125 Q164.6855,867.6875 165.9199,867.6875 Q166.6543,867.6875 167.2949,867.8594 Q167.9512,868.0156 168.498,868.375 Z " fill="#000000"/><text fill="#000000" font-family="sans-serif" font-size="14" lengthAdjust="spacing" textLength="100.3926" x="186.2324" y="878.2285">AdvancedQuery</text><line style="stroke:#181818;stroke-width:0.5;" x1="23" x2="417.3574" y1="888.5" y2="888.5"/><line style="stroke:#181818;stroke-width:0.5;" x1="23" x2="417.3574" y1="896.5" y2="896.5"/><ellipse cx="33" cy="910.8047" fill="#84BE84" rx="3" ry="3" style="stroke:#038048;stroke-width:1.0;"/><text fill="#000000" font-family="sans-serif" font-size="14" lengthAdjust="spacing" text-decoration="underline" textLength="248.999" x="42" y="915.0332">async searchStops(name: string): Stop[]</text><ellipse cx="33" cy="928.4141" fill="#84BE84" rx="3" ry="3" style="stroke:#038048;stroke-width:1.0;"/><text fill="#000000" font-family="sans-serif" font-size="14" lengthAdjust="spacing" text-decoration="underline" textLength="370.3574" x="42" y="932.6426">async getNeighbors(stopId: string, time: DateTime): Travel[]</text></g><!--class Travel--><g id="elem_Travel"><rect codeLine="21" fill="#F1F1F1" height="206.4844" id="Travel" rx="2.5" ry="2.5" style="stroke:#181818;stroke-width:0.5;" width="165.3027" x="137.5" y="473"/><ellipse cx="196.4531" cy="489" fill="#ADD1B2" rx="11" ry="11" style="stroke:#181818;stroke-width:1.0;"/><path d="M199.2188,484.875 Q199.375,484.6563 199.5625,484.5469 Q199.75,484.4375 199.9688,484.4375 Q200.3438,484.4375 200.5781,484.7031 Q200.8125,484.9531 200.8125,485.5625 L200.8125,487.0156 Q200.8125,487.625 200.5781,487.8906 Q200.3438,488.1563 199.9688,488.1563 Q199.625,488.1563 199.4219,487.9531 Q199.2188,487.7656 199.1094,487.25 Q199.0625,486.8906 198.875,486.7031 Q198.5469,486.3281 197.9375,486.1094 Q197.3281,485.8906 196.7031,485.8906 Q195.9375,485.8906 195.2969,486.2188 Q194.6719,486.5469 194.1719,487.2969 Q193.6875,488.0469 193.6875,489.0781 L193.6875,490.1719 Q193.6875,491.4063 194.5781,492.2344 Q195.4688,493.0469 197.0625,493.0469 Q198,493.0469 198.6563,492.7969 Q199.0469,492.6406 199.4688,492.2031 Q199.7344,491.9375 199.875,491.8594 Q200.0313,491.7813 200.2344,491.7813 Q200.5625,491.7813 200.8125,492.0469 Q201.0781,492.2969 201.0781,492.6406 Q201.0781,492.9844 200.7344,493.3906 Q200.2344,493.9688 199.4375,494.2969 Q198.3594,494.75 197.0625,494.75 Q195.5469,494.75 194.3438,494.125 Q193.3594,493.625 192.6719,492.5625 Q191.9844,491.4844 191.9844,490.2031 L191.9844,489.0469 Q191.9844,487.7188 192.5938,486.5781 Q193.2188,485.4219 194.3125,484.8125 Q195.4063,484.1875 196.6406,484.1875 Q197.375,484.1875 198.0156,484.3594 Q198.6719,484.5156 199.2188,484.875 Z " fill="#000000"/><text fill="#000000" font-family="sans-serif" font-size="14" lengthAdjust="spacing" textLength="38.8965" x="216.9531" y="494.7285">Travel</text><line style="stroke:#181818;stroke-width:0.5;" x1="138.5" x2="301.8027" y1="505" y2="505"/><text fill="#000000" font-family="sans-serif" font-size="14" lengthAdjust="spacing" textLength="110.4893" x="143.5" y="523.5332">fromStopId: string</text><text fill="#000000" font-family="sans-serif" font-size="14" lengthAdjust="spacing" textLength="102.71" x="143.5" y="541.1426">fromLat: number</text><text fill="#000000" font-family="sans-serif" font-size="14" lengthAdjust="spacing" textLength="106.6064" x="143.5" y="558.752">fromLon: number</text><text fill="#000000" font-family="sans-serif" font-size="14" lengthAdjust="spacing" textLength="94.165" x="143.5" y="576.3613">toStopId: string</text><text fill="#000000" font-family="sans-serif" font-size="14" lengthAdjust="spacing" textLength="86.3857" x="143.5" y="593.9707">toLat: number</text><text fill="#000000" font-family="sans-serif" font-size="14" lengthAdjust="spacing" textLength="90.2822" x="143.5" y="611.5801">toLon: number</text><text fill="#000000" font-family="sans-serif" font-size="14" lengthAdjust="spacing" textLength="153.3027" x="143.5" y="629.1895">path: [number, number][]</text><text fill="#000000" font-family="sans-serif" font-size="14" lengthAdjust="spacing" textLength="104.2686" x="143.5" y="646.7988">minutes: number</text><text fill="#000000" font-family="sans-serif" font-size="14" lengthAdjust="spacing" textLength="107.3926" x="143.5" y="664.4082">distance: number</text><line style="stroke:#181818;stroke-width:0.5;" x1="138.5" x2="301.8027" y1="671.4844" y2="671.4844"/></g><!--class Geojson--><g id="elem_Geojson"><rect codeLine="35" fill="#F1F1F1" height="83.2188" id="Geojson" rx="2.5" ry="2.5" style="stroke:#181818;stroke-width:0.5;" width="84.1445" x="178" y="160.5"/><ellipse cx="193" cy="176.5" fill="#ADD1B2" rx="11" ry="11" style="stroke:#181818;stroke-width:1.0;"/><path d="M195.7656,172.375 Q195.9219,172.1563 196.1094,172.0469 Q196.2969,171.9375 196.5156,171.9375 Q196.8906,171.9375 197.125,172.2031 Q197.3594,172.4531 197.3594,173.0625 L197.3594,174.5156 Q197.3594,175.125 197.125,175.3906 Q196.8906,175.6563 196.5156,175.6563 Q196.1719,175.6563 195.9688,175.4531 Q195.7656,175.2656 195.6563,174.75 Q195.6094,174.3906 195.4219,174.2031 Q195.0938,173.8281 194.4844,173.6094 Q193.875,173.3906 193.25,173.3906 Q192.4844,173.3906 191.8438,173.7188 Q191.2188,174.0469 190.7188,174.7969 Q190.2344,175.5469 190.2344,176.5781 L190.2344,177.6719 Q190.2344,178.9063 191.125,179.7344 Q192.0156,180.5469 193.6094,180.5469 Q194.5469,180.5469 195.2031,180.2969 Q195.5938,180.1406 196.0156,179.7031 Q196.2813,179.4375 196.4219,179.3594 Q196.5781,179.2813 196.7813,179.2813 Q197.1094,179.2813 197.3594,179.5469 Q197.625,179.7969 197.625,180.1406 Q197.625,180.4844 197.2813,180.8906 Q196.7813,181.4688 195.9844,181.7969 Q194.9063,182.25 193.6094,182.25 Q192.0938,182.25 190.8906,181.625 Q189.9063,181.125 189.2188,180.0625 Q188.5313,178.9844 188.5313,177.7031 L188.5313,176.5469 Q188.5313,175.2188 189.1406,174.0781 Q189.7656,172.9219 190.8594,172.3125 Q191.9531,171.6875 193.1875,171.6875 Q193.9219,171.6875 194.5625,171.8594 Q195.2188,172.0156 195.7656,172.375 Z " fill="#000000"/><text fill="#000000" font-family="sans-serif" font-size="14" lengthAdjust="spacing" textLength="52.1445" x="207" y="182.2285">Geojson</text><line style="stroke:#181818;stroke-width:0.5;" x1="179" x2="261.1445" y1="192.5" y2="192.5"/><line style="stroke:#181818;stroke-width:0.5;" x1="179" x2="261.1445" y1="200.5" y2="200.5"/><ellipse cx="189" cy="214.8047" fill="#84BE84" rx="3" ry="3" style="stroke:#038048;stroke-width:1.0;"/><text fill="#000000" font-family="sans-serif" font-size="14" lengthAdjust="spacing" text-decoration="underline" textLength="42.7861" x="198" y="219.0332">stops()</text><ellipse cx="189" cy="232.4141" fill="#84BE84" rx="3" ry="3" style="stroke:#038048;stroke-width:1.0;"/><text fill="#000000" font-family="sans-serif" font-size="14" lengthAdjust="spacing" text-decoration="underline" textLength="54.4688" x="198" y="236.6426">shapes()</text></g><!--class Stops--><g id="elem_Stops"><rect codeLine="39" fill="#F1F1F1" height="118.4375" id="Stops" rx="2.5" ry="2.5" style="stroke:#181818;stroke-width:0.5;" width="279.6543" x="80" y="279"/><ellipse cx="197.6772" cy="295" fill="#ADD1B2" rx="11" ry="11" style="stroke:#181818;stroke-width:1.0;"/><path d="M200.4429,290.875 Q200.5991,290.6563 200.7866,290.5469 Q200.9741,290.4375 201.1929,290.4375 Q201.5679,290.4375 201.8022,290.7031 Q202.0366,290.9531 202.0366,291.5625 L202.0366,293.0156 Q202.0366,293.625 201.8022,293.8906 Q201.5679,294.1563 201.1929,294.1563 Q200.8491,294.1563 200.646,293.9531 Q200.4429,293.7656 200.3335,293.25 Q200.2866,292.8906 200.0991,292.7031 Q199.771,292.3281 199.1616,292.1094 Q198.5522,291.8906 197.9272,291.8906 Q197.1616,291.8906 196.521,292.2188 Q195.896,292.5469 195.396,293.2969 Q194.9116,294.0469 194.9116,295.0781 L194.9116,296.1719 Q194.9116,297.4063 195.8022,298.2344 Q196.6929,299.0469 198.2866,299.0469 Q199.2241,299.0469 199.8804,298.7969 Q200.271,298.6406 200.6929,298.2031 Q200.9585,297.9375 201.0991,297.8594 Q201.2554,297.7813 201.4585,297.7813 Q201.7866,297.7813 202.0366,298.0469 Q202.3022,298.2969 202.3022,298.6406 Q202.3022,298.9844 201.9585,299.3906 Q201.4585,299.9688 200.6616,300.2969 Q199.5835,300.75 198.2866,300.75 Q196.771,300.75 195.5679,300.125 Q194.5835,299.625 193.896,298.5625 Q193.2085,297.4844 193.2085,296.2031 L193.2085,295.0469 Q193.2085,293.7188 193.8179,292.5781 Q194.4429,291.4219 195.5366,290.8125 Q196.6304,290.1875 197.8647,290.1875 Q198.5991,290.1875 199.2397,290.3594 Q199.896,290.5156 200.4429,290.875 Z " fill="#000000"/><text fill="#000000" font-family="sans-serif" font-size="14" lengthAdjust="spacing" textLength="35.7998" x="218.1772" y="300.7285">Stops</text><line style="stroke:#181818;stroke-width:0.5;" x1="81" x2="358.6543" y1="311" y2="311"/><line style="stroke:#181818;stroke-width:0.5;" x1="81" x2="358.6543" y1="319" y2="319"/><ellipse cx="91" cy="333.3047" fill="#84BE84" rx="3" ry="3" style="stroke:#038048;stroke-width:1.0;"/><text fill="#000000" font-family="sans-serif" font-size="14" lengthAdjust="spacing" text-decoration="underline" textLength="81.6963" x="100" y="337.5332">get(id: string)</text><ellipse cx="91" cy="350.9141" fill="#84BE84" rx="3" ry="3" style="stroke:#038048;stroke-width:1.0;"/><text fill="#000000" font-family="sans-serif" font-size="14" lengthAdjust="spacing" text-decoration="underline" textLength="23.3311" x="100" y="355.1426">all()</text><ellipse cx="91" cy="368.5234" fill="#84BE84" rx="3" ry="3" style="stroke:#038048;stroke-width:1.0;"/><text fill="#000000" font-family="sans-serif" font-size="14" lengthAdjust="spacing" text-decoration="underline" textLength="128.3789" x="100" y="372.752">search(query: string)</text><ellipse cx="91" cy="386.1328" fill="#84BE84" rx="3" ry="3" style="stroke:#038048;stroke-width:1.0;"/><text fill="#000000" font-family="sans-serif" font-size="14" lengthAdjust="spacing" text-decoration="underline" textLength="253.6543" x="100" y="390.3613">neighbors(stopId: string, time: DateTime)</text></g><!--entity gtfs config, stb--><g id="elem_gtfs config, stb"><rect fill="#F1F1F1" height="40.6094" rx="2.5" ry="2.5" style="stroke:#181818;stroke-width:0.5;" width="124.1582" x="158" y="42.5"/><polygon fill="#F1F1F1" points="265.1582,47.5,265.1582,61.5,277.1582,61.5,277.1582,53.5,271.1582,47.5,265.1582,47.5" style="stroke:#181818;stroke-width:0.5;"/><line style="stroke:#181818;stroke-width:0.5;" x1="271.1582" x2="271.1582" y1="47.5" y2="53.5"/><line style="stroke:#181818;stroke-width:0.5;" x1="277.1582" x2="271.1582" y1="53.5" y2="53.5"/><text fill="#000000" font-family="sans-serif" font-size="14" lengthAdjust="spacing" textLength="94.1582" x="168" y="70.0332">gtfs config, stb.</text></g><!--SRC=[ZPB1Rjim38RlVWgYbxfOMcHNtueE60eKnRPafpW7MgPjfRBaINIwhF2xZtQJB4QSOZhPFybFr4zUmmQt2BSRzF2GfD-yAptMNv0nLPLJpY3JBZKwInk3bjlQfEoS2SVVkxxojj7AlL8MHTSm1tR0hRVWYW94js46EHNO6eRFSya8BzesADU0CXZ2FRFNMSlqABaB_OTW7aLeZ7kjzMzjoyXGmJtKwx9YoBKdnThPA6fGlM19y9Er2V0MWPm12Vq3CWoq5_lp2Tu28slL0OQTLK0sj9uEcV5DSgmQQhheX7UVRz4goh-tv7SVGGEXLzM2NHDYYpKb4EHrjXHwBwxMbqjBucUI9sREXpX8ycD-g9u1wvub3T9IleIszBWbirh3ljdkdntBNKDZEzwJJ_eklAiNeoj6eIVa16nRP-J7khDdEhiB87PJ654d80robS3gNPtje-iJjsfjPKF2MM6knKIPp2WmSkE7wmj7TdmbjmdEJiyn3BExcGnLACxkOzq9S9ZtD4wc6kkZEPDOsVKBzmtB5F_gb-v3WltVlJctvy7PGfU7vj6pBb0nN9LS1513S2QqxEugwlu2]--></g></svg>