<svg xmlns="http://www.w3.org/2000/svg" xmlns:xlink="http://www.w3.org/1999/xlink" contentStyleType="text/css" height="1646px" preserveAspectRatio="none" style="width:1001px;height:1646px;background:#FFFFFF;" version="1.1" viewBox="0 0 1001 1646" width="1001px" zoomAndPan="magnify"><defs/><g><!--cluster Models--><g id="cluster_Models"><path d="M8.5,6 L57.7275,6 A3.75,3.75 0 0 1 60.2275,8.5 L67.2275,29.6094 L991.5,29.6094 A2.5,2.5 0 0 1 994,32.1094 L994,1636.5 A2.5,2.5 0 0 1 991.5,1639 L8.5,1639 A2.5,2.5 0 0 1 6,1636.5 L6,8.5 A2.5,2.5 0 0 1 8.5,6 " fill="none" style="stroke:#000000;stroke-width:1.5;"/><line style="stroke:#000000;stroke-width:1.5;" x1="6" x2="67.2275" y1="29.6094" y2="29.6094"/><text fill="#000000" font-family="sans-serif" font-size="14" font-weight="bold" lengthAdjust="spacing" textLength="48.2275" x="10" y="22.5332">Models</text></g><!--cluster Pathfinding--><g id="cluster_Pathfinding"><path d="M114.5,50 L192.4863,50 A3.75,3.75 0 0 1 194.9863,52.5 L201.9863,73.6094 L937.5,73.6094 A2.5,2.5 0 0 1 940,76.1094 L940,815.5 A2.5,2.5 0 0 1 937.5,818 L114.5,818 A2.5,2.5 0 0 1 112,815.5 L112,52.5 A2.5,2.5 0 0 1 114.5,50 " fill="none" style="stroke:#000000;stroke-width:1.5;"/><line style="stroke:#000000;stroke-width:1.5;" x1="112" x2="201.9863" y1="73.6094" y2="73.6094"/><text fill="#000000" font-family="sans-serif" font-size="14" font-weight="bold" lengthAdjust="spacing" textLength="76.9863" x="116" y="66.5332">Pathfinding</text></g><!--cluster algorithms--><g id="cluster_algorithms"><path d="M496.5,694 L569.0654,694 A3.75,3.75 0 0 1 571.5654,696.5 L578.5654,717.6094 L913.5,717.6094 A2.5,2.5 0 0 1 916,720.1094 L916,791.5 A2.5,2.5 0 0 1 913.5,794 L496.5,794 A2.5,2.5 0 0 1 494,791.5 L494,696.5 A2.5,2.5 0 0 1 496.5,694 " fill="none" style="stroke:#000000;stroke-width:1.5;"/><line style="stroke:#000000;stroke-width:1.5;" x1="494" x2="578.5654" y1="717.6094" y2="717.6094"/><text fill="#000000" font-family="sans-serif" font-size="14" font-weight="bold" lengthAdjust="spacing" textLength="71.5654" x="498" y="710.5332">algorithms</text></g><!--class Graph--><g id="elem_Graph"><rect codeLine="96" fill="#F1F1F1" height="118.4375" id="Graph" rx="2.5" ry="2.5" style="stroke:#181818;stroke-width:0.5;" width="278.123" x="65" y="865"/><ellipse cx="180.3564" cy="881" fill="#ADD1B2" rx="11" ry="11" style="stroke:#181818;stroke-width:1;"/><path d="M183.1221,876.875 Q183.2783,876.6563 183.4658,876.5469 Q183.6533,876.4375 183.8721,876.4375 Q184.2471,876.4375 184.4814,876.7031 Q184.7158,876.9531 184.7158,877.5625 L184.7158,879.0156 Q184.7158,879.625 184.4814,879.8906 Q184.2471,880.1563 183.8721,880.1563 Q183.5283,880.1563 183.3252,879.9531 Q183.1221,879.7656 183.0127,879.25 Q182.9658,878.8906 182.7783,878.7031 Q182.4502,878.3281 181.8408,878.1094 Q181.2314,877.8906 180.6064,877.8906 Q179.8408,877.8906 179.2002,878.2188 Q178.5752,878.5469 178.0752,879.2969 Q177.5908,880.0469 177.5908,881.0781 L177.5908,882.1719 Q177.5908,883.4063 178.4814,884.2344 Q179.3721,885.0469 180.9658,885.0469 Q181.9033,885.0469 182.5596,884.7969 Q182.9502,884.6406 183.3721,884.2031 Q183.6377,883.9375 183.7783,883.8594 Q183.9346,883.7813 184.1377,883.7813 Q184.4658,883.7813 184.7158,884.0469 Q184.9814,884.2969 184.9814,884.6406 Q184.9814,884.9844 184.6377,885.3906 Q184.1377,885.9688 183.3408,886.2969 Q182.2627,886.75 180.9658,886.75 Q179.4502,886.75 178.2471,886.125 Q177.2627,885.625 176.5752,884.5625 Q175.8877,883.4844 175.8877,882.2031 L175.8877,881.0469 Q175.8877,879.7188 176.4971,878.5781 Q177.1221,877.4219 178.2158,876.8125 Q179.3096,876.1875 180.5439,876.1875 Q181.2783,876.1875 181.9189,876.3594 Q182.5752,876.5156 183.1221,876.875 Z " fill="#000000"/><text fill="#000000" font-family="sans-serif" font-size="14" lengthAdjust="spacing" textLength="38.9102" x="200.8564" y="886.7285">Graph</text><line style="stroke:#181818;stroke-width:0.5;" x1="66" x2="342.123" y1="897" y2="897"/><ellipse cx="76" cy="911.3047" fill="none" rx="3" ry="3" style="stroke:#038048;stroke-width:1;"/><text fill="#000000" font-family="sans-serif" font-size="14" lengthAdjust="spacing" textLength="252.123" x="85" y="915.5332">vertices: Map&lt;string, Vertex&gt; {readOnly}</text><line style="stroke:#181818;stroke-width:0.5;" x1="66" x2="342.123" y1="922.6094" y2="922.6094"/><ellipse cx="76" cy="936.9141" fill="#84BE84" rx="3" ry="3" style="stroke:#038048;stroke-width:1;"/><text fill="#000000" font-family="sans-serif" font-size="14" lengthAdjust="spacing" textLength="113.5723" x="85" y="941.1426">Graph(time: Time)</text><ellipse cx="76" cy="954.5234" fill="#84BE84" rx="3" ry="3" style="stroke:#038048;stroke-width:1;"/><text fill="#000000" font-family="sans-serif" font-size="14" lengthAdjust="spacing" textLength="178.1855" x="85" y="958.752">getVertex(id: string): Vertex?</text><ellipse cx="76" cy="972.1328" fill="#84BE84" rx="3" ry="3" style="stroke:#038048;stroke-width:1;"/><text fill="#000000" font-family="sans-serif" font-size="14" lengthAdjust="spacing" textLength="220.9922" x="85" y="976.3613">getOrAddVertex(stop: Stop): Vertex</text></g><!--class Time--><g id="elem_Time"><rect codeLine="59" fill="#F1F1F1" height="259.3125" id="Time" rx="2.5" ry="2.5" style="stroke:#181818;stroke-width:0.5;" width="383.9229" x="22" y="1364"/><ellipse cx="194.1563" cy="1380" fill="#ADD1B2" rx="11" ry="11" style="stroke:#181818;stroke-width:1;"/><path d="M196.9219,1375.875 Q197.0781,1375.6563 197.2656,1375.5469 Q197.4531,1375.4375 197.6719,1375.4375 Q198.0469,1375.4375 198.2813,1375.7031 Q198.5156,1375.9531 198.5156,1376.5625 L198.5156,1378.0156 Q198.5156,1378.625 198.2813,1378.8906 Q198.0469,1379.1563 197.6719,1379.1563 Q197.3281,1379.1563 197.125,1378.9531 Q196.9219,1378.7656 196.8125,1378.25 Q196.7656,1377.8906 196.5781,1377.7031 Q196.25,1377.3281 195.6406,1377.1094 Q195.0313,1376.8906 194.4063,1376.8906 Q193.6406,1376.8906 193,1377.2188 Q192.375,1377.5469 191.875,1378.2969 Q191.3906,1379.0469 191.3906,1380.0781 L191.3906,1381.1719 Q191.3906,1382.4063 192.2813,1383.2344 Q193.1719,1384.0469 194.7656,1384.0469 Q195.7031,1384.0469 196.3594,1383.7969 Q196.75,1383.6406 197.1719,1383.2031 Q197.4375,1382.9375 197.5781,1382.8594 Q197.7344,1382.7813 197.9375,1382.7813 Q198.2656,1382.7813 198.5156,1383.0469 Q198.7813,1383.2969 198.7813,1383.6406 Q198.7813,1383.9844 198.4375,1384.3906 Q197.9375,1384.9688 197.1406,1385.2969 Q196.0625,1385.75 194.7656,1385.75 Q193.25,1385.75 192.0469,1385.125 Q191.0625,1384.625 190.375,1383.5625 Q189.6875,1382.4844 189.6875,1381.2031 L189.6875,1380.0469 Q189.6875,1378.7188 190.2969,1377.5781 Q190.9219,1376.4219 192.0156,1375.8125 Q193.1094,1375.1875 194.3438,1375.1875 Q195.0781,1375.1875 195.7188,1375.3594 Q196.375,1375.5156 196.9219,1375.875 Z " fill="#000000"/><text fill="#000000" font-family="sans-serif" font-size="14" lengthAdjust="spacing" textLength="31.1104" x="214.6563" y="1385.7285">Time</text><line style="stroke:#181818;stroke-width:0.5;" x1="23" x2="404.9229" y1="1396" y2="1396"/><ellipse cx="33" cy="1410.3047" fill="none" rx="3" ry="3" style="stroke:#038048;stroke-width:1;"/><text fill="#000000" font-family="sans-serif" font-size="14" lengthAdjust="spacing" textLength="160.3164" x="42" y="1414.5332">hours: number {readOnly}</text><ellipse cx="33" cy="1427.9141" fill="none" rx="3" ry="3" style="stroke:#038048;stroke-width:1;"/><text fill="#000000" font-family="sans-serif" font-size="14" lengthAdjust="spacing" textLength="174.3164" x="42" y="1432.1426">minutes: number {readOnly}</text><ellipse cx="33" cy="1445.5234" fill="none" rx="3" ry="3" style="stroke:#038048;stroke-width:1;"/><text fill="#000000" font-family="sans-serif" font-size="14" lengthAdjust="spacing" textLength="177.4404" x="42" y="1449.752">seconds: number {readOnly}</text><line style="stroke:#181818;stroke-width:0.5;" x1="23" x2="404.9229" y1="1456.8281" y2="1456.8281"/><ellipse cx="33" cy="1471.1328" fill="#84BE84" rx="3" ry="3" style="stroke:#038048;stroke-width:1;"/><text fill="#000000" font-family="sans-serif" font-size="14" lengthAdjust="spacing" textLength="357.9229" x="42" y="1475.3613">Time(hours: number, minutes: number, seconds: number)</text><ellipse cx="33" cy="1488.7422" fill="#84BE84" rx="3" ry="3" style="stroke:#038048;stroke-width:1;"/><text fill="#000000" font-family="sans-serif" font-size="14" lengthAdjust="spacing" textLength="112.8203" x="42" y="1492.9707">valueOf(): number</text><ellipse cx="33" cy="1506.3516" fill="#84BE84" rx="3" ry="3" style="stroke:#038048;stroke-width:1;"/><text fill="#000000" font-family="sans-serif" font-size="14" lengthAdjust="spacing" textLength="284.04" x="42" y="1510.5801">toString({hours = true, seconds = true}): string</text><ellipse cx="33" cy="1523.9609" fill="#84BE84" rx="3" ry="3" style="stroke:#038048;stroke-width:1;"/><text fill="#000000" font-family="sans-serif" font-size="14" lengthAdjust="spacing" textLength="177.4268" x="42" y="1528.1895">before(other: Time): boolean</text><ellipse cx="33" cy="1541.5703" fill="#84BE84" rx="3" ry="3" style="stroke:#038048;stroke-width:1;"/><text fill="#000000" font-family="sans-serif" font-size="14" lengthAdjust="spacing" textLength="165.7441" x="42" y="1545.7988">after(other: Time): boolean</text><ellipse cx="33" cy="1559.1797" fill="#84BE84" rx="3" ry="3" style="stroke:#038048;stroke-width:1;"/><text fill="#000000" font-family="sans-serif" font-size="14" lengthAdjust="spacing" textLength="178.9854" x="42" y="1563.4082">equals(other: Time): boolean</text><ellipse cx="33" cy="1576.7891" fill="#84BE84" rx="3" ry="3" style="stroke:#038048;stroke-width:1;"/><text fill="#000000" font-family="sans-serif" font-size="14" lengthAdjust="spacing" textLength="189.8408" x="42" y="1581.0176">compare(other: Time): number</text><ellipse cx="33" cy="1594.3984" fill="#84BE84" rx="3" ry="3" style="stroke:#038048;stroke-width:1;"/><text fill="#000000" font-family="sans-serif" font-size="14" lengthAdjust="spacing" textLength="144.6963" x="42" y="1598.627">plus(other: Time): Time</text><ellipse cx="33" cy="1612.0078" fill="#84BE84" rx="3" ry="3" style="stroke:#038048;stroke-width:1;"/><text fill="#000000" font-family="sans-serif" font-size="14" lengthAdjust="spacing" textLength="156.3584" x="42" y="1616.2363">minus(other: Time): Time</text></g><!--class Coordinate--><g id="elem_Coordinate"><rect codeLine="74" fill="#F1F1F1" height="136.0469" id="Coordinate" rx="2.5" ry="2.5" style="stroke:#181818;stroke-width:0.5;" width="293.6816" x="441" y="1425.5"/><ellipse cx="549.3462" cy="1441.5" fill="#ADD1B2" rx="11" ry="11" style="stroke:#181818;stroke-width:1;"/><path d="M552.1118,1437.375 Q552.2681,1437.1563 552.4556,1437.0469 Q552.6431,1436.9375 552.8618,1436.9375 Q553.2368,1436.9375 553.4712,1437.2031 Q553.7056,1437.4531 553.7056,1438.0625 L553.7056,1439.5156 Q553.7056,1440.125 553.4712,1440.3906 Q553.2368,1440.6563 552.8618,1440.6563 Q552.5181,1440.6563 552.3149,1440.4531 Q552.1118,1440.2656 552.0024,1439.75 Q551.9556,1439.3906 551.7681,1439.2031 Q551.4399,1438.8281 550.8306,1438.6094 Q550.2212,1438.3906 549.5962,1438.3906 Q548.8306,1438.3906 548.1899,1438.7188 Q547.5649,1439.0469 547.0649,1439.7969 Q546.5806,1440.5469 546.5806,1441.5781 L546.5806,1442.6719 Q546.5806,1443.9063 547.4712,1444.7344 Q548.3618,1445.5469 549.9556,1445.5469 Q550.8931,1445.5469 551.5493,1445.2969 Q551.9399,1445.1406 552.3618,1444.7031 Q552.6274,1444.4375 552.7681,1444.3594 Q552.9243,1444.2813 553.1274,1444.2813 Q553.4556,1444.2813 553.7056,1444.5469 Q553.9712,1444.7969 553.9712,1445.1406 Q553.9712,1445.4844 553.6274,1445.8906 Q553.1274,1446.4688 552.3306,1446.7969 Q551.2524,1447.25 549.9556,1447.25 Q548.4399,1447.25 547.2368,1446.625 Q546.2524,1446.125 545.5649,1445.0625 Q544.8774,1443.9844 544.8774,1442.7031 L544.8774,1441.5469 Q544.8774,1440.2188 545.4868,1439.0781 Q546.1118,1437.9219 547.2056,1437.3125 Q548.2993,1436.6875 549.5337,1436.6875 Q550.2681,1436.6875 550.9087,1436.8594 Q551.5649,1437.0156 552.1118,1437.375 Z " fill="#000000"/><text fill="#000000" font-family="sans-serif" font-size="14" lengthAdjust="spacing" textLength="68.4893" x="569.8462" y="1447.2285">Coordinate</text><line style="stroke:#181818;stroke-width:0.5;" x1="442" x2="733.6816" y1="1457.5" y2="1457.5"/><ellipse cx="452" cy="1471.8047" fill="none" rx="3" ry="3" style="stroke:#038048;stroke-width:1;"/><text fill="#000000" font-family="sans-serif" font-size="14" lengthAdjust="spacing" textLength="226.4678" x="461" y="1476.0332">latLon: [number, number] {readOnly}</text><ellipse cx="452" cy="1489.4141" fill="none" rx="3" ry="3" style="stroke:#038048;stroke-width:1;"/><text fill="#000000" font-family="sans-serif" font-size="14" lengthAdjust="spacing" textLength="140.082" x="461" y="1493.6426">lat: number {readOnly}</text><ellipse cx="452" cy="1507.0234" fill="none" rx="3" ry="3" style="stroke:#038048;stroke-width:1;"/><text fill="#000000" font-family="sans-serif" font-size="14" lengthAdjust="spacing" textLength="143.9785" x="461" y="1511.252">lon: number {readOnly}</text><line style="stroke:#181818;stroke-width:0.5;" x1="442" x2="733.6816" y1="1518.3281" y2="1518.3281"/><ellipse cx="452" cy="1532.6328" fill="#84BE84" rx="3" ry="3" style="stroke:#038048;stroke-width:1;"/><text fill="#000000" font-family="sans-serif" font-size="14" lengthAdjust="spacing" textLength="229.5576" x="461" y="1536.8613">Coordinate(lat: number, lon: number)</text><ellipse cx="452" cy="1550.2422" fill="#84BE84" rx="3" ry="3" style="stroke:#038048;stroke-width:1;"/><text fill="#000000" font-family="sans-serif" font-size="14" lengthAdjust="spacing" textLength="267.6816" x="461" y="1554.4707">distanceMeters(other: Coordinate): number</text></g><!--class Vertex--><g id="elem_Vertex"><rect codeLine="82" fill="#F1F1F1" height="241.7031" id="Vertex" rx="2.5" ry="2.5" style="stroke:#181818;stroke-width:0.5;" width="261.792" x="334" y="1044"/><ellipse cx="440.415" cy="1060" fill="#ADD1B2" rx="11" ry="11" style="stroke:#181818;stroke-width:1;"/><path d="M443.1807,1055.875 Q443.3369,1055.6563 443.5244,1055.5469 Q443.7119,1055.4375 443.9307,1055.4375 Q444.3057,1055.4375 444.54,1055.7031 Q444.7744,1055.9531 444.7744,1056.5625 L444.7744,1058.0156 Q444.7744,1058.625 444.54,1058.8906 Q444.3057,1059.1563 443.9307,1059.1563 Q443.5869,1059.1563 443.3838,1058.9531 Q443.1807,1058.7656 443.0713,1058.25 Q443.0244,1057.8906 442.8369,1057.7031 Q442.5088,1057.3281 441.8994,1057.1094 Q441.29,1056.8906 440.665,1056.8906 Q439.8994,1056.8906 439.2588,1057.2188 Q438.6338,1057.5469 438.1338,1058.2969 Q437.6494,1059.0469 437.6494,1060.0781 L437.6494,1061.1719 Q437.6494,1062.4063 438.54,1063.2344 Q439.4307,1064.0469 441.0244,1064.0469 Q441.9619,1064.0469 442.6182,1063.7969 Q443.0088,1063.6406 443.4307,1063.2031 Q443.6963,1062.9375 443.8369,1062.8594 Q443.9932,1062.7813 444.1963,1062.7813 Q444.5244,1062.7813 444.7744,1063.0469 Q445.04,1063.2969 445.04,1063.6406 Q445.04,1063.9844 444.6963,1064.3906 Q444.1963,1064.9688 443.3994,1065.2969 Q442.3213,1065.75 441.0244,1065.75 Q439.5088,1065.75 438.3057,1065.125 Q437.3213,1064.625 436.6338,1063.5625 Q435.9463,1062.4844 435.9463,1061.2031 L435.9463,1060.0469 Q435.9463,1058.7188 436.5557,1057.5781 Q437.1807,1056.4219 438.2744,1055.8125 Q439.3682,1055.1875 440.6025,1055.1875 Q441.3369,1055.1875 441.9775,1055.3594 Q442.6338,1055.5156 443.1807,1055.875 Z " fill="#000000"/><text fill="#000000" font-family="sans-serif" font-size="14" lengthAdjust="spacing" textLength="40.4619" x="460.915" y="1065.7285">Vertex</text><line style="stroke:#181818;stroke-width:0.5;" x1="335" x2="594.792" y1="1076" y2="1076"/><ellipse cx="345" cy="1090.3047" fill="none" rx="3" ry="3" style="stroke:#038048;stroke-width:1;"/><text fill="#000000" font-family="sans-serif" font-size="14" lengthAdjust="spacing" textLength="136.1924" x="354" y="1094.5332">id: number {readOnly}</text><ellipse cx="345" cy="1107.9141" fill="none" rx="3" ry="3" style="stroke:#038048;stroke-width:1;"/><text fill="#000000" font-family="sans-serif" font-size="14" lengthAdjust="spacing" textLength="194.5713" x="354" y="1112.1426">location: Coordinate {readOnly}</text><ellipse cx="345" cy="1125.5234" fill="none" rx="3" ry="3" style="stroke:#038048;stroke-width:1;"/><text fill="#000000" font-family="sans-serif" font-size="14" lengthAdjust="spacing" textLength="220.9922" x="354" y="1129.752">stepsFromRoot: number {readOnly}</text><ellipse cx="345" cy="1143.1328" fill="none" rx="3" ry="3" style="stroke:#038048;stroke-width:1;"/><text fill="#000000" font-family="sans-serif" font-size="14" lengthAdjust="spacing" textLength="97.2891" x="354" y="1147.3613">visited: boolean</text><ellipse cx="345" cy="1160.7422" fill="none" rx="3" ry="3" style="stroke:#038048;stroke-width:1;"/><text fill="#000000" font-family="sans-serif" font-size="14" lengthAdjust="spacing" textLength="115.1787" x="354" y="1164.9707">distance: number?</text><ellipse cx="345" cy="1178.3516" fill="none" rx="3" ry="3" style="stroke:#038048;stroke-width:1;"/><text fill="#000000" font-family="sans-serif" font-size="14" lengthAdjust="spacing" textLength="107.3789" x="354" y="1182.5801">heuristic: number</text><ellipse cx="345" cy="1195.9609" fill="none" rx="3" ry="3" style="stroke:#038048;stroke-width:1;"/><text fill="#000000" font-family="sans-serif" font-size="14" lengthAdjust="spacing" textLength="235.792" x="354" y="1200.1895">weightedHeuristic: number {readOnly}</text><ellipse cx="345" cy="1213.5703" fill="none" rx="3" ry="3" style="stroke:#038048;stroke-width:1;"/><text fill="#000000" font-family="sans-serif" font-size="14" lengthAdjust="spacing" textLength="224.1436" x="354" y="1217.7988">parentEdge: DirectedWeightedEdge</text><ellipse cx="345" cy="1231.1797" fill="none" rx="3" ry="3" style="stroke:#038048;stroke-width:1;"/><text fill="#000000" font-family="sans-serif" font-size="14" lengthAdjust="spacing" textLength="206.2334" x="354" y="1235.4082">parentVertex: Vertex? {readOnly}</text><ellipse cx="345" cy="1248.7891" fill="none" rx="3" ry="3" style="stroke:#038048;stroke-width:1;"/><text fill="#000000" font-family="sans-serif" font-size="14" lengthAdjust="spacing" textLength="167.3369" x="354" y="1253.0176">isRoot: boolean {readOnly}</text><ellipse cx="345" cy="1266.3984" fill="none" rx="3" ry="3" style="stroke:#038048;stroke-width:1;"/><text fill="#000000" font-family="sans-serif" font-size="14" lengthAdjust="spacing" textLength="63.041" x="354" y="1270.627">stop: Stop</text><line style="stroke:#181818;stroke-width:0.5;" x1="335" x2="594.792" y1="1277.7031" y2="1277.7031"/></g><!--class DirectedWeightedEdge--><g id="elem_DirectedWeightedEdge"><rect codeLine="111" fill="#F1F1F1" height="136.0469" id="DirectedWeightedEdge" rx="2.5" ry="2.5" style="stroke:#181818;stroke-width:0.5;" width="207.3438" x="770.5" y="1425.5"/><ellipse cx="799.6174" cy="1441.5" fill="#ADD1B2" rx="11" ry="11" style="stroke:#181818;stroke-width:1;"/><path d="M802.3831,1437.375 Q802.5393,1437.1563 802.7268,1437.0469 Q802.9143,1436.9375 803.1331,1436.9375 Q803.5081,1436.9375 803.7424,1437.2031 Q803.9768,1437.4531 803.9768,1438.0625 L803.9768,1439.5156 Q803.9768,1440.125 803.7424,1440.3906 Q803.5081,1440.6563 803.1331,1440.6563 Q802.7893,1440.6563 802.5862,1440.4531 Q802.3831,1440.2656 802.2737,1439.75 Q802.2268,1439.3906 802.0393,1439.2031 Q801.7112,1438.8281 801.1018,1438.6094 Q800.4924,1438.3906 799.8674,1438.3906 Q799.1018,1438.3906 798.4612,1438.7188 Q797.8362,1439.0469 797.3362,1439.7969 Q796.8518,1440.5469 796.8518,1441.5781 L796.8518,1442.6719 Q796.8518,1443.9063 797.7424,1444.7344 Q798.6331,1445.5469 800.2268,1445.5469 Q801.1643,1445.5469 801.8206,1445.2969 Q802.2112,1445.1406 802.6331,1444.7031 Q802.8987,1444.4375 803.0393,1444.3594 Q803.1956,1444.2813 803.3987,1444.2813 Q803.7268,1444.2813 803.9768,1444.5469 Q804.2424,1444.7969 804.2424,1445.1406 Q804.2424,1445.4844 803.8987,1445.8906 Q803.3987,1446.4688 802.6018,1446.7969 Q801.5237,1447.25 800.2268,1447.25 Q798.7112,1447.25 797.5081,1446.625 Q796.5237,1446.125 795.8362,1445.0625 Q795.1487,1443.9844 795.1487,1442.7031 L795.1487,1441.5469 Q795.1487,1440.2188 795.7581,1439.0781 Q796.3831,1437.9219 797.4768,1437.3125 Q798.5706,1436.6875 799.8049,1436.6875 Q800.5393,1436.6875 801.1799,1436.8594 Q801.8362,1437.0156 802.3831,1437.375 Z " fill="#000000"/><text fill="#000000" font-family="sans-serif" font-size="14" lengthAdjust="spacing" textLength="143.9717" x="816.7546" y="1447.2285">DirectedWeightedEdge</text><line style="stroke:#181818;stroke-width:0.5;" x1="771.5" x2="976.8438" y1="1457.5" y2="1457.5"/><ellipse cx="781.5" cy="1471.8047" fill="none" rx="3" ry="3" style="stroke:#038048;stroke-width:1;"/><text fill="#000000" font-family="sans-serif" font-size="14" lengthAdjust="spacing" textLength="181.3438" x="790.5" y="1476.0332">path: Coordinate[] {readOnly}</text><ellipse cx="781.5" cy="1489.4141" fill="none" rx="3" ry="3" style="stroke:#038048;stroke-width:1;"/><text fill="#000000" font-family="sans-serif" font-size="14" lengthAdjust="spacing" textLength="165.7646" x="790.5" y="1493.6426">weight: number {readOnly}</text><ellipse cx="781.5" cy="1507.0234" fill="none" rx="3" ry="3" style="stroke:#038048;stroke-width:1;"/><text fill="#000000" font-family="sans-serif" font-size="14" lengthAdjust="spacing" textLength="160.3096" x="790.5" y="1511.252">source: Vertex {readOnly}</text><ellipse cx="781.5" cy="1524.6328" fill="none" rx="3" ry="3" style="stroke:#038048;stroke-width:1;"/><text fill="#000000" font-family="sans-serif" font-size="14" lengthAdjust="spacing" textLength="154.0889" x="790.5" y="1528.8613">target: Vertex {readOnly}</text><ellipse cx="781.5" cy="1542.2422" fill="none" rx="3" ry="3" style="stroke:#038048;stroke-width:1;"/><text fill="#000000" font-family="sans-serif" font-size="14" lengthAdjust="spacing" textLength="97.2891" x="790.5" y="1546.4707">visited: boolean</text><line style="stroke:#181818;stroke-width:0.5;" x1="771.5" x2="976.8438" y1="1553.5469" y2="1553.5469"/></g><!--class HeapDataStructure--><g id="elem_HeapDataStructure"><rect fill="#F1F1F1" height="48" id="HeapDataStructure" rx="2.5" ry="2.5" style="stroke:#181818;stroke-width:0.5;" width="151.8408" x="128" y="730"/><ellipse cx="143" cy="746" fill="#ADD1B2" rx="11" ry="11" style="stroke:#181818;stroke-width:1;"/><path d="M145.7656,741.875 Q145.9219,741.6563 146.1094,741.5469 Q146.2969,741.4375 146.5156,741.4375 Q146.8906,741.4375 147.125,741.7031 Q147.3594,741.9531 147.3594,742.5625 L147.3594,744.0156 Q147.3594,744.625 147.125,744.8906 Q146.8906,745.1563 146.5156,745.1563 Q146.1719,745.1563 145.9688,744.9531 Q145.7656,744.7656 145.6563,744.25 Q145.6094,743.8906 145.4219,743.7031 Q145.0938,743.3281 144.4844,743.1094 Q143.875,742.8906 143.25,742.8906 Q142.4844,742.8906 141.8438,743.2188 Q141.2188,743.5469 140.7188,744.2969 Q140.2344,745.0469 140.2344,746.0781 L140.2344,747.1719 Q140.2344,748.4063 141.125,749.2344 Q142.0156,750.0469 143.6094,750.0469 Q144.5469,750.0469 145.2031,749.7969 Q145.5938,749.6406 146.0156,749.2031 Q146.2813,748.9375 146.4219,748.8594 Q146.5781,748.7813 146.7813,748.7813 Q147.1094,748.7813 147.3594,749.0469 Q147.625,749.2969 147.625,749.6406 Q147.625,749.9844 147.2813,750.3906 Q146.7813,750.9688 145.9844,751.2969 Q144.9063,751.75 143.6094,751.75 Q142.0938,751.75 140.8906,751.125 Q139.9063,750.625 139.2188,749.5625 Q138.5313,748.4844 138.5313,747.2031 L138.5313,746.0469 Q138.5313,744.7188 139.1406,743.5781 Q139.7656,742.4219 140.8594,741.8125 Q141.9531,741.1875 143.1875,741.1875 Q143.9219,741.1875 144.5625,741.3594 Q145.2188,741.5156 145.7656,741.875 Z " fill="#000000"/><text fill="#000000" font-family="sans-serif" font-size="14" lengthAdjust="spacing" textLength="119.8408" x="157" y="751.7285">HeapDataStructure</text><line style="stroke:#181818;stroke-width:0.5;" x1="129" x2="278.8408" y1="762" y2="762"/><line style="stroke:#181818;stroke-width:0.5;" x1="129" x2="278.8408" y1="770" y2="770"/></g><!--class Pathfinding--><g id="elem_Pathfinding"><rect codeLine="10" fill="#F1F1F1" height="312.1406" id="Pathfinding" rx="2.5" ry="2.5" style="stroke:#181818;stroke-width:0.5;" width="306.9092" x="510.5" y="86"/><ellipse cx="624.6772" cy="102" fill="#A9DCDF" rx="11" ry="11" style="stroke:#181818;stroke-width:1;"/><path d="M626.8647,103.7656 L622.7241,103.7656 L622.3022,104.7969 L622.7241,104.7969 Q623.3335,104.7969 623.5991,105.0313 Q623.8647,105.2656 623.8647,105.6563 Q623.8647,106.0313 623.5991,106.2656 Q623.3335,106.5 622.7241,106.5 L620.4272,106.5 Q619.8179,106.5 619.5679,106.2656 Q619.3022,106.0313 619.3022,105.6406 Q619.3022,105.2656 619.5835,105.0313 Q619.8491,104.7813 620.4741,104.7969 L623.146,98.1406 L622.0366,98.1406 Q621.4272,98.1406 621.1616,97.9063 Q620.896,97.6719 620.896,97.2813 Q620.896,96.9063 621.1616,96.6719 Q621.4272,96.4375 622.0366,96.4375 L625.7085,96.4375 L629.0991,104.7969 Q629.6929,104.7969 629.8804,104.9375 Q630.271,105.2031 630.271,105.6563 Q630.271,106.0313 630.0054,106.2656 Q629.7554,106.5 629.146,106.5 L626.8491,106.5 Q626.2397,106.5 625.9741,106.2656 Q625.7085,106.0313 625.7085,105.6406 Q625.7085,105.2656 625.9741,105.0313 Q626.2397,104.7969 626.8491,104.7969 L627.271,104.7969 L626.8647,103.7656 Z M626.146,102.0625 L624.7866,98.6875 L623.4116,102.0625 L626.146,102.0625 Z " fill="#000000"/><text fill="#000000" font-family="sans-serif" font-size="14" font-style="italic" lengthAdjust="spacing" textLength="70.0547" x="645.1772" y="107.7285">Pathfinding</text><line style="stroke:#181818;stroke-width:0.5;" x1="511.5" x2="816.4092" y1="118" y2="118"/><ellipse cx="521.5" cy="132.3047" fill="none" rx="3" ry="3" style="stroke:#038048;stroke-width:1;"/><text fill="#000000" font-family="sans-serif" font-size="14" lengthAdjust="spacing" text-decoration="underline" textLength="147.082" x="530.5" y="136.5332">name: string {readOnly}</text><ellipse cx="521.5" cy="149.9141" fill="none" rx="3" ry="3" style="stroke:#038048;stroke-width:1;"/><text fill="#000000" font-family="sans-serif" font-size="14" lengthAdjust="spacing" textLength="152.5439" x="530.5" y="154.1426">graph: Graph {readOnly}</text><ellipse cx="521.5" cy="167.5234" fill="none" rx="3" ry="3" style="stroke:#038048;stroke-width:1;"/><text fill="#000000" font-family="sans-serif" font-size="14" lengthAdjust="spacing" textLength="145.5166" x="530.5" y="171.752">start: Vertex {readOnly}</text><ellipse cx="521.5" cy="185.1328" fill="none" rx="3" ry="3" style="stroke:#038048;stroke-width:1;"/><text fill="#000000" font-family="sans-serif" font-size="14" lengthAdjust="spacing" textLength="141.6475" x="530.5" y="189.3613">end: Vertex {readOnly}</text><ellipse cx="521.5" cy="202.7422" fill="none" rx="3" ry="3" style="stroke:#038048;stroke-width:1;"/><text fill="#000000" font-family="sans-serif" font-size="14" lengthAdjust="spacing" textLength="190.6816" x="530.5" y="206.9707">isFinished: boolean {readOnly}</text><line style="stroke:#181818;stroke-width:0.5;" x1="511.5" x2="816.4092" y1="214.0469" y2="214.0469"/><ellipse cx="521.5" cy="228.3516" fill="#84BE84" rx="3" ry="3" style="stroke:#038048;stroke-width:1;"/><text fill="#000000" font-family="sans-serif" font-size="14" lengthAdjust="spacing" textLength="280.9092" x="530.5" y="232.5801">Pathfinding(start: Stop, end: Stop, tme: Time)</text><rect fill="#F24D5C" height="6" style="stroke:#C82930;stroke-width:1;" width="6" x="518.5" y="242.9609"/><text fill="#000000" font-family="sans-serif" font-size="14" lengthAdjust="spacing" textLength="192.9717" x="530.5" y="250.1895">visit(e: DirectedWeightedEdge)</text><polygon fill="#FFFF44" points="521.5,258.5703,525.5,262.5703,521.5,266.5703,517.5,262.5703" style="stroke:#B38D22;stroke-width:1;"/><text fill="#000000" font-family="sans-serif" font-size="14" lengthAdjust="spacing" textLength="27.2207" x="530.5" y="267.7988">init()</text><ellipse cx="521.5" cy="281.1797" fill="#84BE84" rx="3" ry="3" style="stroke:#038048;stroke-width:1;"/><text fill="#000000" font-family="sans-serif" font-size="14" lengthAdjust="spacing" textLength="35.7861" x="530.5" y="285.4082">next()</text><ellipse cx="521.5" cy="298.7891" fill="#84BE84" rx="3" ry="3" style="stroke:#038048;stroke-width:1;"/><text fill="#000000" font-family="sans-serif" font-size="14" lengthAdjust="spacing" textLength="85.5791" x="530.5" y="303.0176">nextWalking()</text><ellipse cx="521.5" cy="316.3984" fill="#84BE84" rx="3" ry="3" style="stroke:#038048;stroke-width:1;"/><text fill="#000000" font-family="sans-serif" font-size="14" font-style="italic" lengthAdjust="spacing" textLength="182.8477" x="530.5" y="320.627">getWeight(v: Vertex): number</text><ellipse cx="521.5" cy="334.0078" fill="#84BE84" rx="3" ry="3" style="stroke:#038048;stroke-width:1;"/><text fill="#000000" font-family="sans-serif" font-size="14" lengthAdjust="spacing" textLength="40.4482" x="530.5" y="338.2363">reset()</text><ellipse cx="521.5" cy="351.6172" fill="#84BE84" rx="3" ry="3" style="stroke:#038048;stroke-width:1;"/><text fill="#000000" font-family="sans-serif" font-size="14" lengthAdjust="spacing" textLength="165.7578" x="530.5" y="355.8457">getCompletePath() Path[]?</text><ellipse cx="521.5" cy="369.2266" fill="#84BE84" rx="3" ry="3" style="stroke:#038048;stroke-width:1;"/><text fill="#000000" font-family="sans-serif" font-size="14" lengthAdjust="spacing" textLength="231.8818" x="530.5" y="373.4551">getCompletePathVertices(): Vertex[]?</text><ellipse cx="521.5" cy="386.8359" fill="#84BE84" rx="3" ry="3" style="stroke:#038048;stroke-width:1;"/><text fill="#000000" font-family="sans-serif" font-size="14" lengthAdjust="spacing" textLength="177.4268" x="530.5" y="391.0645">getIncompletePaths(): Path[]</text></g><!--class IDataStructure--><g id="elem_IDataStructure"><rect codeLine="30" fill="#F1F1F1" height="171.2656" id="IDataStructure" rx="2.5" ry="2.5" style="stroke:#181818;stroke-width:0.5;" width="203.4199" x="293.5" y="476"/><ellipse cx="345.8291" cy="492" fill="#B4A7E5" rx="11" ry="11" style="stroke:#181818;stroke-width:1;"/><path d="M346.7822,488.6406 L346.7822,495.2969 L348.501,495.2969 Q349.1104,495.2969 349.376,495.5313 Q349.6416,495.7656 349.6416,496.1563 Q349.6416,496.5313 349.376,496.7656 Q349.1104,497 348.501,497 L343.3604,497 Q342.751,497 342.4854,496.7656 Q342.2197,496.5313 342.2197,496.1406 Q342.2197,495.7656 342.4854,495.5313 Q342.751,495.2969 343.3604,495.2969 L345.0791,495.2969 L345.0791,488.6406 L343.3604,488.6406 Q342.751,488.6406 342.4854,488.4063 Q342.2197,488.1719 342.2197,487.7813 Q342.2197,487.4063 342.4854,487.1719 Q342.751,486.9375 343.3604,486.9375 L348.501,486.9375 Q349.1104,486.9375 349.376,487.1719 Q349.6416,487.4063 349.6416,487.7813 Q349.6416,488.1719 349.376,488.4063 Q349.1104,488.6406 348.501,488.6406 L346.7822,488.6406 Z " fill="#000000"/><text fill="#000000" font-family="sans-serif" font-size="14" font-style="italic" lengthAdjust="spacing" textLength="90.2617" x="366.3291" y="497.7285">IDataStructure</text><line style="stroke:#181818;stroke-width:0.5;" x1="294.5" x2="495.9199" y1="508" y2="508"/><ellipse cx="304.5" cy="522.3047" fill="none" rx="3" ry="3" style="stroke:#038048;stroke-width:1;"/><text fill="#000000" font-family="sans-serif" font-size="14" lengthAdjust="spacing" textLength="80.1445" x="313.5" y="526.5332">size: number</text><line style="stroke:#181818;stroke-width:0.5;" x1="294.5" x2="495.9199" y1="533.6094" y2="533.6094"/><ellipse cx="304.5" cy="547.9141" fill="#84BE84" rx="3" ry="3" style="stroke:#038048;stroke-width:1;"/><text fill="#000000" font-family="sans-serif" font-size="14" lengthAdjust="spacing" textLength="94.9238" x="313.5" y="552.1426">push(v: Vertex)</text><ellipse cx="304.5" cy="565.5234" fill="#84BE84" rx="3" ry="3" style="stroke:#038048;stroke-width:1;"/><text fill="#000000" font-family="sans-serif" font-size="14" lengthAdjust="spacing" textLength="95.71" x="313.5" y="569.752">peek(): Vertex?</text><ellipse cx="304.5" cy="583.1328" fill="#84BE84" rx="3" ry="3" style="stroke:#038048;stroke-width:1;"/><text fill="#000000" font-family="sans-serif" font-size="14" lengthAdjust="spacing" textLength="88.71" x="313.5" y="587.3613">pop(): Vertex?</text><ellipse cx="304.5" cy="600.7422" fill="#84BE84" rx="3" ry="3" style="stroke:#038048;stroke-width:1;"/><text fill="#000000" font-family="sans-serif" font-size="14" lengthAdjust="spacing" textLength="168.8545" x="313.5" y="604.9707">remove(v: Vertex): boolean</text><ellipse cx="304.5" cy="618.3516" fill="#84BE84" rx="3" ry="3" style="stroke:#038048;stroke-width:1;"/><text fill="#000000" font-family="sans-serif" font-size="14" lengthAdjust="spacing" textLength="177.4199" x="313.5" y="622.5801">elements(): Iterable&lt;Vertex&gt;</text><ellipse cx="304.5" cy="635.9609" fill="#84BE84" rx="3" ry="3" style="stroke:#038048;stroke-width:1;"/><text fill="#000000" font-family="sans-serif" font-size="14" lengthAdjust="spacing" textLength="73.1309" x="313.5" y="640.1895">clear(): void</text></g><!--class QueueDataStructure--><g id="elem_QueueDataStructure"><rect fill="#F1F1F1" height="48" id="QueueDataStructure" rx="2.5" ry="2.5" style="stroke:#181818;stroke-width:0.5;" width="160.4063" x="315" y="730"/><ellipse cx="330" cy="746" fill="#ADD1B2" rx="11" ry="11" style="stroke:#181818;stroke-width:1;"/><path d="M332.7656,741.875 Q332.9219,741.6563 333.1094,741.5469 Q333.2969,741.4375 333.5156,741.4375 Q333.8906,741.4375 334.125,741.7031 Q334.3594,741.9531 334.3594,742.5625 L334.3594,744.0156 Q334.3594,744.625 334.125,744.8906 Q333.8906,745.1563 333.5156,745.1563 Q333.1719,745.1563 332.9688,744.9531 Q332.7656,744.7656 332.6563,744.25 Q332.6094,743.8906 332.4219,743.7031 Q332.0938,743.3281 331.4844,743.1094 Q330.875,742.8906 330.25,742.8906 Q329.4844,742.8906 328.8438,743.2188 Q328.2188,743.5469 327.7188,744.2969 Q327.2344,745.0469 327.2344,746.0781 L327.2344,747.1719 Q327.2344,748.4063 328.125,749.2344 Q329.0156,750.0469 330.6094,750.0469 Q331.5469,750.0469 332.2031,749.7969 Q332.5938,749.6406 333.0156,749.2031 Q333.2813,748.9375 333.4219,748.8594 Q333.5781,748.7813 333.7813,748.7813 Q334.1094,748.7813 334.3594,749.0469 Q334.625,749.2969 334.625,749.6406 Q334.625,749.9844 334.2813,750.3906 Q333.7813,750.9688 332.9844,751.2969 Q331.9063,751.75 330.6094,751.75 Q329.0938,751.75 327.8906,751.125 Q326.9063,750.625 326.2188,749.5625 Q325.5313,748.4844 325.5313,747.2031 L325.5313,746.0469 Q325.5313,744.7188 326.1406,743.5781 Q326.7656,742.4219 327.8594,741.8125 Q328.9531,741.1875 330.1875,741.1875 Q330.9219,741.1875 331.5625,741.3594 Q332.2188,741.5156 332.7656,741.875 Z " fill="#000000"/><text fill="#000000" font-family="sans-serif" font-size="14" lengthAdjust="spacing" textLength="128.4063" x="344" y="751.7285">QueueDataStructure</text><line style="stroke:#181818;stroke-width:0.5;" x1="316" x2="474.4063" y1="762" y2="762"/><line style="stroke:#181818;stroke-width:0.5;" x1="316" x2="474.4063" y1="770" y2="770"/></g><!--class HeapPathfinding--><g id="elem_HeapPathfinding"><rect codeLine="50" fill="#F1F1F1" height="48" id="HeapPathfinding" rx="2.5" ry="2.5" style="stroke:#181818;stroke-width:0.5;" width="135.5234" x="596" y="537.5"/><ellipse cx="611" cy="553.5" fill="#A9DCDF" rx="11" ry="11" style="stroke:#181818;stroke-width:1;"/><path d="M613.1875,555.2656 L609.0469,555.2656 L608.625,556.2969 L609.0469,556.2969 Q609.6563,556.2969 609.9219,556.5313 Q610.1875,556.7656 610.1875,557.1563 Q610.1875,557.5313 609.9219,557.7656 Q609.6563,558 609.0469,558 L606.75,558 Q606.1406,558 605.8906,557.7656 Q605.625,557.5313 605.625,557.1406 Q605.625,556.7656 605.9063,556.5313 Q606.1719,556.2813 606.7969,556.2969 L609.4688,549.6406 L608.3594,549.6406 Q607.75,549.6406 607.4844,549.4063 Q607.2188,549.1719 607.2188,548.7813 Q607.2188,548.4063 607.4844,548.1719 Q607.75,547.9375 608.3594,547.9375 L612.0313,547.9375 L615.4219,556.2969 Q616.0156,556.2969 616.2031,556.4375 Q616.5938,556.7031 616.5938,557.1563 Q616.5938,557.5313 616.3281,557.7656 Q616.0781,558 615.4688,558 L613.1719,558 Q612.5625,558 612.2969,557.7656 Q612.0313,557.5313 612.0313,557.1406 Q612.0313,556.7656 612.2969,556.5313 Q612.5625,556.2969 613.1719,556.2969 L613.5938,556.2969 L613.1875,555.2656 Z M612.4688,553.5625 L611.1094,550.1875 L609.7344,553.5625 L612.4688,553.5625 Z " fill="#000000"/><text fill="#000000" font-family="sans-serif" font-size="14" font-style="italic" lengthAdjust="spacing" textLength="103.5234" x="625" y="559.2285">HeapPathfinding</text><line style="stroke:#181818;stroke-width:0.5;" x1="597" x2="730.5234" y1="569.5" y2="569.5"/><line style="stroke:#181818;stroke-width:0.5;" x1="597" x2="730.5234" y1="577.5" y2="577.5"/></g><!--class BFS--><g id="elem_BFS"><rect codeLine="44" fill="#F1F1F1" height="48" id="BFS" rx="2.5" ry="2.5" style="stroke:#181818;stroke-width:0.5;" width="59.2275" x="840.5" y="730"/><ellipse cx="855.5" cy="746" fill="#ADD1B2" rx="11" ry="11" style="stroke:#181818;stroke-width:1;"/><path d="M858.2656,741.875 Q858.4219,741.6563 858.6094,741.5469 Q858.7969,741.4375 859.0156,741.4375 Q859.3906,741.4375 859.625,741.7031 Q859.8594,741.9531 859.8594,742.5625 L859.8594,744.0156 Q859.8594,744.625 859.625,744.8906 Q859.3906,745.1563 859.0156,745.1563 Q858.6719,745.1563 858.4688,744.9531 Q858.2656,744.7656 858.1563,744.25 Q858.1094,743.8906 857.9219,743.7031 Q857.5938,743.3281 856.9844,743.1094 Q856.375,742.8906 855.75,742.8906 Q854.9844,742.8906 854.3438,743.2188 Q853.7188,743.5469 853.2188,744.2969 Q852.7344,745.0469 852.7344,746.0781 L852.7344,747.1719 Q852.7344,748.4063 853.625,749.2344 Q854.5156,750.0469 856.1094,750.0469 Q857.0469,750.0469 857.7031,749.7969 Q858.0938,749.6406 858.5156,749.2031 Q858.7813,748.9375 858.9219,748.8594 Q859.0781,748.7813 859.2813,748.7813 Q859.6094,748.7813 859.8594,749.0469 Q860.125,749.2969 860.125,749.6406 Q860.125,749.9844 859.7813,750.3906 Q859.2813,750.9688 858.4844,751.2969 Q857.4063,751.75 856.1094,751.75 Q854.5938,751.75 853.3906,751.125 Q852.4063,750.625 851.7188,749.5625 Q851.0313,748.4844 851.0313,747.2031 L851.0313,746.0469 Q851.0313,744.7188 851.6406,743.5781 Q852.2656,742.4219 853.3594,741.8125 Q854.4531,741.1875 855.6875,741.1875 Q856.4219,741.1875 857.0625,741.3594 Q857.7188,741.5156 858.2656,741.875 Z " fill="#000000"/><text fill="#000000" font-family="sans-serif" font-size="14" lengthAdjust="spacing" textLength="27.2275" x="869.5" y="751.7285">BFS</text><line style="stroke:#181818;stroke-width:0.5;" x1="841.5" x2="898.7275" y1="762" y2="762"/><line style="stroke:#181818;stroke-width:0.5;" x1="841.5" x2="898.7275" y1="770" y2="770"/></g><!--class Dijkstra--><g id="elem_Dijkstra"><rect codeLine="45" fill="#F1F1F1" height="48" id="Dijkstra" rx="2.5" ry="2.5" style="stroke:#181818;stroke-width:0.5;" width="78.6689" x="510.5" y="730"/><ellipse cx="525.5" cy="746" fill="#ADD1B2" rx="11" ry="11" style="stroke:#181818;stroke-width:1;"/><path d="M528.2656,741.875 Q528.4219,741.6563 528.6094,741.5469 Q528.7969,741.4375 529.0156,741.4375 Q529.3906,741.4375 529.625,741.7031 Q529.8594,741.9531 529.8594,742.5625 L529.8594,744.0156 Q529.8594,744.625 529.625,744.8906 Q529.3906,745.1563 529.0156,745.1563 Q528.6719,745.1563 528.4688,744.9531 Q528.2656,744.7656 528.1563,744.25 Q528.1094,743.8906 527.9219,743.7031 Q527.5938,743.3281 526.9844,743.1094 Q526.375,742.8906 525.75,742.8906 Q524.9844,742.8906 524.3438,743.2188 Q523.7188,743.5469 523.2188,744.2969 Q522.7344,745.0469 522.7344,746.0781 L522.7344,747.1719 Q522.7344,748.4063 523.625,749.2344 Q524.5156,750.0469 526.1094,750.0469 Q527.0469,750.0469 527.7031,749.7969 Q528.0938,749.6406 528.5156,749.2031 Q528.7813,748.9375 528.9219,748.8594 Q529.0781,748.7813 529.2813,748.7813 Q529.6094,748.7813 529.8594,749.0469 Q530.125,749.2969 530.125,749.6406 Q530.125,749.9844 529.7813,750.3906 Q529.2813,750.9688 528.4844,751.2969 Q527.4063,751.75 526.1094,751.75 Q524.5938,751.75 523.3906,751.125 Q522.4063,750.625 521.7188,749.5625 Q521.0313,748.4844 521.0313,747.2031 L521.0313,746.0469 Q521.0313,744.7188 521.6406,743.5781 Q522.2656,742.4219 523.3594,741.8125 Q524.4531,741.1875 525.6875,741.1875 Q526.4219,741.1875 527.0625,741.3594 Q527.7188,741.5156 528.2656,741.875 Z " fill="#000000"/><text fill="#000000" font-family="sans-serif" font-size="14" lengthAdjust="spacing" textLength="46.6689" x="539.5" y="751.7285">Dijkstra</text><line style="stroke:#181818;stroke-width:0.5;" x1="511.5" x2="588.1689" y1="762" y2="762"/><line style="stroke:#181818;stroke-width:0.5;" x1="511.5" x2="588.1689" y1="770" y2="770"/></g><!--class Greedy--><g id="elem_Greedy"><rect codeLine="46" fill="#F1F1F1" height="48" id="Greedy" rx="2.5" ry="2.5" style="stroke:#181818;stroke-width:0.5;" width="77.9102" x="625" y="730"/><ellipse cx="640" cy="746" fill="#ADD1B2" rx="11" ry="11" style="stroke:#181818;stroke-width:1;"/><path d="M642.7656,741.875 Q642.9219,741.6563 643.1094,741.5469 Q643.2969,741.4375 643.5156,741.4375 Q643.8906,741.4375 644.125,741.7031 Q644.3594,741.9531 644.3594,742.5625 L644.3594,744.0156 Q644.3594,744.625 644.125,744.8906 Q643.8906,745.1563 643.5156,745.1563 Q643.1719,745.1563 642.9688,744.9531 Q642.7656,744.7656 642.6563,744.25 Q642.6094,743.8906 642.4219,743.7031 Q642.0938,743.3281 641.4844,743.1094 Q640.875,742.8906 640.25,742.8906 Q639.4844,742.8906 638.8438,743.2188 Q638.2188,743.5469 637.7188,744.2969 Q637.2344,745.0469 637.2344,746.0781 L637.2344,747.1719 Q637.2344,748.4063 638.125,749.2344 Q639.0156,750.0469 640.6094,750.0469 Q641.5469,750.0469 642.2031,749.7969 Q642.5938,749.6406 643.0156,749.2031 Q643.2813,748.9375 643.4219,748.8594 Q643.5781,748.7813 643.7813,748.7813 Q644.1094,748.7813 644.3594,749.0469 Q644.625,749.2969 644.625,749.6406 Q644.625,749.9844 644.2813,750.3906 Q643.7813,750.9688 642.9844,751.2969 Q641.9063,751.75 640.6094,751.75 Q639.0938,751.75 637.8906,751.125 Q636.9063,750.625 636.2188,749.5625 Q635.5313,748.4844 635.5313,747.2031 L635.5313,746.0469 Q635.5313,744.7188 636.1406,743.5781 Q636.7656,742.4219 637.8594,741.8125 Q638.9531,741.1875 640.1875,741.1875 Q640.9219,741.1875 641.5625,741.3594 Q642.2188,741.5156 642.7656,741.875 Z " fill="#000000"/><text fill="#000000" font-family="sans-serif" font-size="14" lengthAdjust="spacing" textLength="45.9102" x="654" y="751.7285">Greedy</text><line style="stroke:#181818;stroke-width:0.5;" x1="626" x2="701.9102" y1="762" y2="762"/><line style="stroke:#181818;stroke-width:0.5;" x1="626" x2="701.9102" y1="770" y2="770"/></g><!--class AStar--><g id="elem_AStar"><rect codeLine="47" fill="#F1F1F1" height="48" id="AStar" rx="2.5" ry="2.5" style="stroke:#181818;stroke-width:0.5;" width="67.0137" x="738.5" y="730"/><ellipse cx="753.5" cy="746" fill="#ADD1B2" rx="11" ry="11" style="stroke:#181818;stroke-width:1;"/><path d="M756.2656,741.875 Q756.4219,741.6563 756.6094,741.5469 Q756.7969,741.4375 757.0156,741.4375 Q757.3906,741.4375 757.625,741.7031 Q757.8594,741.9531 757.8594,742.5625 L757.8594,744.0156 Q757.8594,744.625 757.625,744.8906 Q757.3906,745.1563 757.0156,745.1563 Q756.6719,745.1563 756.4688,744.9531 Q756.2656,744.7656 756.1563,744.25 Q756.1094,743.8906 755.9219,743.7031 Q755.5938,743.3281 754.9844,743.1094 Q754.375,742.8906 753.75,742.8906 Q752.9844,742.8906 752.3438,743.2188 Q751.7188,743.5469 751.2188,744.2969 Q750.7344,745.0469 750.7344,746.0781 L750.7344,747.1719 Q750.7344,748.4063 751.625,749.2344 Q752.5156,750.0469 754.1094,750.0469 Q755.0469,750.0469 755.7031,749.7969 Q756.0938,749.6406 756.5156,749.2031 Q756.7813,748.9375 756.9219,748.8594 Q757.0781,748.7813 757.2813,748.7813 Q757.6094,748.7813 757.8594,749.0469 Q758.125,749.2969 758.125,749.6406 Q758.125,749.9844 757.7813,750.3906 Q757.2813,750.9688 756.4844,751.2969 Q755.4063,751.75 754.1094,751.75 Q752.5938,751.75 751.3906,751.125 Q750.4063,750.625 749.7188,749.5625 Q749.0313,748.4844 749.0313,747.2031 L749.0313,746.0469 Q749.0313,744.7188 749.6406,743.5781 Q750.2656,742.4219 751.3594,741.8125 Q752.4531,741.1875 753.6875,741.1875 Q754.4219,741.1875 755.0625,741.3594 Q755.7188,741.5156 756.2656,741.875 Z " fill="#000000"/><text fill="#000000" font-family="sans-serif" font-size="14" lengthAdjust="spacing" textLength="35.0137" x="767.5" y="751.7285">AStar</text><line style="stroke:#181818;stroke-width:0.5;" x1="739.5" x2="804.5137" y1="762" y2="762"/><line style="stroke:#181818;stroke-width:0.5;" x1="739.5" x2="804.5137" y1="770" y2="770"/></g><!--link HeapDataStructure to Graph--><!--reverse link Pathfinding to IDataStructure--><g id="link_Pathfinding_IDataStructure"><path codeLine="28" d="M524.8933,407.1861 C502.2233,433.9461 487.19,451.69 466.86,475.69 " fill="none" id="Pathfinding-backto-IDataStructure" style="stroke:#181818;stroke-width:1;"/><polygon fill="none" points="532.65,398.03,525.7196,400.0225,524.8933,407.1861,531.8237,405.1936,532.65,398.03" style="stroke:#181818;stroke-width:1;"/><text fill="#000000" font-family="sans-serif" font-size="13" font-style="italic" lengthAdjust="spacing" textLength="25.3018" x="506" y="442.4951">data</text></g><!--reverse link IDataStructure to HeapDataStructure--><g id="link_IDataStructure_HeapDataStructure"><path codeLine="40" d="M297.3632,659.879 C267.0732,690.079 248.09,709.02 227.31,729.75 " fill="none" id="IDataStructure-backto-HeapDataStructure" style="stroke:#181818;stroke-width:1;"/><polygon fill="none" points="310.11,647.17,293.1268,655.63,301.5995,664.1279,310.11,647.17" style="stroke:#181818;stroke-width:1;"/></g><!--reverse link IDataStructure to QueueDataStructure--><g id="link_IDataStructure_QueueDataStructure"><path codeLine="41" d="M395,665.17 C395,695.37 395,709.02 395,729.75 " fill="none" id="IDataStructure-backto-QueueDataStructure" style="stroke:#181818;stroke-width:1;"/><polygon fill="none" points="395,647.17,389,665.17,401,665.17,395,647.17" style="stroke:#181818;stroke-width:1;"/></g><!--reverse link Pathfinding to BFS--><g id="link_Pathfinding_BFS"><path codeLine="52" d="M733.3906,414.7803 C781.6806,534.3503 837.3,672.04 860.64,729.82 " fill="none" id="Pathfinding-backto-BFS" style="stroke:#181818;stroke-width:1;"/><polygon fill="none" points="726.65,398.09,727.8272,417.0271,738.954,412.5334,726.65,398.09" style="stroke:#181818;stroke-width:1;"/></g><!--reverse link Pathfinding to HeapPathfinding--><g id="link_Pathfinding_HeapPathfinding"><path codeLine="53" d="M664,416.03 C664,470.34 664,507.23 664,537.25 " fill="none" id="Pathfinding-backto-HeapPathfinding" style="stroke:#181818;stroke-width:1;"/><polygon fill="none" points="664,398.03,658,416.03,670,416.03,664,398.03" style="stroke:#181818;stroke-width:1;"/></g><!--reverse link HeapPathfinding to Greedy--><g id="link_HeapPathfinding_Greedy"><path codeLine="54" d="M664,603.86 C664,640.52 664,693.15 664,729.75 " fill="none" id="HeapPathfinding-backto-Greedy" style="stroke:#181818;stroke-width:1;"/><polygon fill="none" points="664,585.86,658,603.86,670,603.86,664,585.86" style="stroke:#181818;stroke-width:1;"/></g><!--reverse link HeapPathfinding to Dijkstra--><g id="link_HeapPathfinding_Dijkstra"><path codeLine="55" d="M640.7764,601.3053 C618.8364,637.9653 585.81,693.15 563.91,729.75 " fill="none" id="HeapPathfinding-backto-Dijkstra" style="stroke:#181818;stroke-width:1;"/><polygon fill="none" points="650.02,585.86,635.628,598.2241,645.9249,604.3865,650.02,585.86" style="stroke:#181818;stroke-width:1;"/></g><!--reverse link HeapPathfinding to AStar--><g id="link_HeapPathfinding_AStar"><path codeLine="56" d="M686.1194,601.5175 C706.9094,638.1775 738.07,693.15 758.82,729.75 " fill="none" id="HeapPathfinding-backto-AStar" style="stroke:#181818;stroke-width:1;"/><polygon fill="none" points="677.24,585.86,680.9002,604.4773,691.3386,598.5577,677.24,585.86" style="stroke:#181818;stroke-width:1;"/></g><!--reverse link Vertex to Coordinate--><g id="link_Vertex_Coordinate"><path codeLine="102" d="M333.3479,1297.7927 C328.5479,1313.7727 333.25,1318.49 344,1334 C365.63,1365.21 390.89,1345.41 424,1364 C454.59,1381.18 485.55,1403.79 512.2,1425.25 " fill="none" id="Vertex-backto-Coordinate" style="stroke:#181818;stroke-width:1;"/><polygon fill="none" points="336.8,1286.3,331.243,1290.8957,333.3479,1297.7927,338.9048,1293.1971,336.8,1286.3" style="stroke:#181818;stroke-width:1;"/><text fill="#000000" font-family="sans-serif" font-size="13" lengthAdjust="spacing" textLength="109.8525" x="345" y="1330.4951">location {readOnly}</text></g><!--reverse link Vertex to Time--><g id="link_Vertex_Time"><path codeLine="103" d="M323.6488,1255.7391 C274.9088,1287.2091 240.53,1310.35 237,1316 C227.98,1330.41 221.78,1346.77 217.6,1363.58 " fill="none" id="Vertex-backto-Time" style="stroke:#181818;stroke-width:1;"/><polygon fill="none" points="333.73,1249.23,326.5197,1249.1242,323.6488,1255.7391,330.8591,1255.845,333.73,1249.23" style="stroke:#181818;stroke-width:1;"/><text fill="#000000" font-family="sans-serif" font-size="13" lengthAdjust="spacing" textLength="89.6035" x="238" y="1330.4951">time {readOnly}</text></g><!--reverse link Graph to Time--><g id="link_Graph_Time"><path codeLine="104" d="M205.2317,995.0681 C206.8017,1084.0481 209.63,1244.37 211.73,1363.8 " fill="none" id="Graph-backto-Time" style="stroke:#181818;stroke-width:1;"/><polygon fill="none" points="205.02,983.07,201.1265,989.1396,205.2317,995.0681,209.1252,988.9985,205.02,983.07" style="stroke:#181818;stroke-width:1;"/><text fill="#000000" font-family="sans-serif" font-size="13" lengthAdjust="spacing" textLength="89.6035" x="211" y="1170.4951">time {readOnly}</text></g><!--link Graph to Vertex--><g id="link_Graph_Vertex"><path codeLine="105" d="M267.51,983.16 C287.66,1001.61 310.72,1022.73 333.82,1043.88 " fill="none" id="Graph-Vertex" style="stroke:#181818;stroke-width:1;"/></g><!--reverse link Vertex to DirectedWeightedEdge--><g id="link_Vertex_DirectedWeightedEdge"><path codeLine="107" d="M470.5846,1297.742 C476.0046,1315.772 481.3,1321.11 495,1334 C537.04,1373.55 701.42,1338.09 753,1364 C781.34,1378.24 806.54,1401.97 826.51,1425.19 " fill="none" id="Vertex-backto-DirectedWeightedEdge" style="stroke:#181818;stroke-width:1;"/><polygon fill="none" points="467.13,1286.25,465.0266,1293.1475,470.5846,1297.742,472.688,1290.8445,467.13,1286.25" style="stroke:#181818;stroke-width:1;"/><text fill="#000000" font-family="sans-serif" font-size="13" lengthAdjust="spacing" textLength="112.0234" x="496" y="1330.4951">inEdges {readOnly}</text><text fill="#000000" font-family="sans-serif" font-size="13" lengthAdjust="spacing" textLength="5.0591" x="816.3401" y="1414.8314">*</text></g><!--reverse link Vertex to DirectedWeightedEdge--><g id="link_Vertex_DirectedWeightedEdge"><path codeLine="108" d="M590.2348,1293.8969 C611.5848,1311.7069 625.41,1320.79 649,1334 C690.98,1357.5 711.94,1338.93 753,1364 C779.15,1379.97 803.34,1403.07 823.1,1425.29 " fill="none" id="Vertex-backto-DirectedWeightedEdge-1" style="stroke:#181818;stroke-width:1;"/><polygon fill="none" points="581.02,1286.21,583.0651,1293.125,590.2348,1293.8969,588.1897,1286.9819,581.02,1286.21" style="stroke:#181818;stroke-width:1;"/><text fill="#000000" font-family="sans-serif" font-size="13" lengthAdjust="spacing" textLength="137.3062" x="650" y="1330.4951">transitEdges {readOnly}</text><text fill="#000000" font-family="sans-serif" font-size="13" lengthAdjust="spacing" textLength="5.0591" x="812.2438" y="1414.4663">*</text></g><!--reverse link Vertex to DirectedWeightedEdge--><g id="link_Vertex_DirectedWeightedEdge"><path codeLine="109" d="M607.6891,1206.449 C673.1091,1230.029 738.21,1262.47 792,1316 C822.18,1346.03 842.51,1389.26 855.38,1425.41 " fill="none" id="Vertex-backto-DirectedWeightedEdge-2" style="stroke:#181818;stroke-width:1;"/><polygon fill="none" points="596.4,1202.38,600.6882,1208.1775,607.6891,1206.449,603.4009,1200.6515,596.4,1202.38" style="stroke:#181818;stroke-width:1;"/><text fill="#000000" font-family="sans-serif" font-size="13" lengthAdjust="spacing" textLength="145.2598" x="806" y="1330.4951">walkingEdges {readOnly}</text><text fill="#000000" font-family="sans-serif" font-size="13" lengthAdjust="spacing" textLength="5.0591" x="848.0544" y="1414.5994">*</text></g><!--SRC=[fLTDSzeu6BxpApJqKBD0DtjbQ3hPPDDcPZFfbavx23a8-mKhs99NaacpbF- -homRP5d0pgmFiP6Uz_ipRyaptL0oVgQIN4_cdwLOIPhVK4tdSIfYaL4Dh_ECBUP5HhakysokXSZK_kSxGpakM2nUOD7hlIKNH0kYIyc9M2u9ddCr8WaiQPbfyji58jIQyOAY619dLAahhILRb1hk43jZ_m2vwFKA6g_f2iYzI21JPDiZ-7ocEbqodZ2-UlS9Q67Kd6bPnYWEoFWnPKa2_6bCFafQfBsAfc7aqDRSp4CNIaiQQwl94P1vXcIhDDKitX5ESvWGfAjG4cZomBFNdGTV6HKcLfFZAEGfzOHy0wdXnt4OyEGyYAbRnfbA0R4BZ15GVXpiM1hLIioqA4PMbFtKniwlB8T1YtXCDamn7U7b3PCGQqY-0rkb-FuZMNdWDmHrqj704y_XH_ZmEytMHYV_Rjj4QaTMeAsyQDCuPJ0XlCmN83qg2GgwSf31jSYB33GODqI3oXkFJnzEuume5eEA1etO8CaTZnsY2ctPxw6xtlxJJJWn7fExTafFI7_ABXCyc_xABli7EiOro2MDmQVmirPXFHrnJb6gr76XVmkmFbZgsrc8ulYbX5nie1MTEX_zjCuW1wuh7zsXGNIHmTJIN7hG6CcbmMq4IqAUzFmm_OdUxFI8a-Y_IYYX3T_Zcov2ivMGJAUvyZnj-yVljxF0wGrxNfla3Lnzb039Q-3YQeP56RBJwrZ6H2U9mfbLcUVgrhdqsJH0xzo2FQM3c8xDGTJ1ojf2QvJfEOv_XoGLfLHD6eUQsf3aZEC8EGDIW2CcEGCoqgEMn97FVUHp6ZZq6vgLyB2CkarfYADnLisDQ5i98Ey9vXhisTM_TuDclZYa2rWA2P7GASYwBNVhQaZe4WlfB0h-Bcccpi9C9wCTeHshYgpqUPcN5vsZa5RihuMGc22uThGo0FUGFmMVaCSc0FRz50uXea_7E3EyJW4EQaGEiv5BwCOyOJX4UGptsFRbtj03axRNMWOtOztXnf9psiUuYXXDN6y54rv3eMwboBy8SSObrL1tTeU0TGs33svfGYdnciM1l7Yfru9FFYQiWKarhiqE4TuiEb3hklqO2dDbojf-OYKoVXA5NNkw0QfNEDTLzIOm8VUqcDfA7TLQN8O5L4mYpRehLRKqMDh81Dwo2mpN2lWWhvAaHX-KtgDhxStVEg_CLk5a2MuKJVOuYlPzYge38rPNdTZ3MOVyHnYYQjLy6VrV-i4m6uQCcozrIiLJv3XuE6Rp_-BnOZVHBe-UEza3jDjMdkhKhTB78mtBLigPuOKJmzJWyVy3SBvGYKbo6XCiz5rlzoy0]--></g></svg>