<svg xmlns="http://www.w3.org/2000/svg" xmlns:xlink="http://www.w3.org/1999/xlink" contentStyleType="text/css" height="1204px" preserveAspectRatio="none" style="width:783px;height:1204px;background:#FFFFFF;" version="1.1" viewBox="0 0 783 1204" width="783px" zoomAndPan="magnify"><defs/><g><!--cluster Routes--><g id="cluster_Routes"><path d="M98.5,72 L146.9482,72 A3.75,3.75 0 0 1 149.4482,74.5 L156.4482,95.6094 L601.5,95.6094 A2.5,2.5 0 0 1 604,98.1094 L604,238.5 A2.5,2.5 0 0 1 601.5,241 L98.5,241 A2.5,2.5 0 0 1 96,238.5 L96,74.5 A2.5,2.5 0 0 1 98.5,72 " fill="none" style="stroke:#000000;stroke-width:1.5;"/><line style="stroke:#000000;stroke-width:1.5;" x1="96" x2="156.4482" y1="95.6094" y2="95.6094"/><text fill="#000000" font-family="sans-serif" font-size="14" font-weight="bold" lengthAdjust="spacing" textLength="47.4482" x="100" y="88.5332">Routes</text></g><!--cluster Utils--><g id="cluster_Utils"><path d="M8.5,273 L39.8379,273 A3.75,3.75 0 0 1 42.3379,275.5 L49.3379,296.6094 L549.5,296.6094 A2.5,2.5 0 0 1 552,299.1094 L552,566.5 A2.5,2.5 0 0 1 549.5,569 L8.5,569 A2.5,2.5 0 0 1 6,566.5 L6,275.5 A2.5,2.5 0 0 1 8.5,273 " fill="none" style="stroke:#000000;stroke-width:1.5;"/><line style="stroke:#000000;stroke-width:1.5;" x1="6" x2="49.3379" y1="296.6094" y2="296.6094"/><text fill="#000000" font-family="sans-serif" font-size="14" font-weight="bold" lengthAdjust="spacing" textLength="30.3379" x="10" y="289.5332">Utils</text></g><!--cluster Configs--><g id="cluster_Configs"><path d="M273.5,601 L326.6035,601 A3.75,3.75 0 0 1 329.1035,603.5 L336.1035,624.6094 L445.5,624.6094 A2.5,2.5 0 0 1 448,627.1094 L448,707.5 A2.5,2.5 0 0 1 445.5,710 L273.5,710 A2.5,2.5 0 0 1 271,707.5 L271,603.5 A2.5,2.5 0 0 1 273.5,601 " fill="none" style="stroke:#000000;stroke-width:1.5;"/><line style="stroke:#000000;stroke-width:1.5;" x1="271" x2="336.1035" y1="624.6094" y2="624.6094"/><text fill="#000000" font-family="sans-serif" font-size="14" font-weight="bold" lengthAdjust="spacing" textLength="52.1035" x="275" y="617.5332">Configs</text></g><!--cluster Models--><g id="cluster_Models"><path d="M273.5,750 L322.7275,750 A3.75,3.75 0 0 1 325.2275,752.5 L332.2275,773.6094 L773.5,773.6094 A2.5,2.5 0 0 1 776,776.1094 L776,1194.5 A2.5,2.5 0 0 1 773.5,1197 L273.5,1197 A2.5,2.5 0 0 1 271,1194.5 L271,752.5 A2.5,2.5 0 0 1 273.5,750 " fill="none" style="stroke:#000000;stroke-width:1.5;"/><line style="stroke:#000000;stroke-width:1.5;" x1="271" x2="332.2275" y1="773.6094" y2="773.6094"/><text fill="#000000" font-family="sans-serif" font-size="14" font-weight="bold" lengthAdjust="spacing" textLength="48.2275" x="275" y="766.5332">Models</text></g><!--cluster db--><g id="cluster_db"><path d="M313.5,802 L331.6035,802 A3.75,3.75 0 0 1 334.1035,804.5 L341.1035,825.6094 L741.5,825.6094 A2.5,2.5 0 0 1 744,828.1094 L744,1162.5 A2.5,2.5 0 0 1 741.5,1165 L313.5,1165 A2.5,2.5 0 0 1 311,1162.5 L311,804.5 A2.5,2.5 0 0 1 313.5,802 " fill="none" style="stroke:#000000;stroke-width:1.5;"/><line style="stroke:#000000;stroke-width:1.5;" x1="311" x2="341.1035" y1="825.6094" y2="825.6094"/><text fill="#000000" font-family="sans-serif" font-size="14" font-weight="bold" lengthAdjust="spacing" textLength="17.1035" x="315" y="818.5332">db</text></g><!--cluster schema--><g id="cluster_schema"><path d="M337.5,846 L390.6445,846 A3.75,3.75 0 0 1 393.1445,848.5 L400.1445,869.6094 L717.5,869.6094 A2.5,2.5 0 0 1 720,872.1094 L720,1138.5 A2.5,2.5 0 0 1 717.5,1141 L337.5,1141 A2.5,2.5 0 0 1 335,1138.5 L335,848.5 A2.5,2.5 0 0 1 337.5,846 " fill="none" style="stroke:#000000;stroke-width:1.5;"/><line style="stroke:#000000;stroke-width:1.5;" x1="335" x2="400.1445" y1="869.6094" y2="869.6094"/><text fill="#000000" font-family="sans-serif" font-size="14" font-weight="bold" lengthAdjust="spacing" textLength="52.1445" x="339" y="862.5332">schema</text></g><!--class GeojsonRouter--><g id="elem_GeojsonRouter"><rect codeLine="46" fill="#F1F1F1" height="83.2188" id="GeojsonRouter" rx="2.5" ry="2.5" style="stroke:#181818;stroke-width:0.5;" width="126.165" x="454" y="125"/><ellipse cx="469" cy="141" fill="#ADD1B2" rx="11" ry="11" style="stroke:#181818;stroke-width:1;"/><path d="M471.7656,136.875 Q471.9219,136.6563 472.1094,136.5469 Q472.2969,136.4375 472.5156,136.4375 Q472.8906,136.4375 473.125,136.7031 Q473.3594,136.9531 473.3594,137.5625 L473.3594,139.0156 Q473.3594,139.625 473.125,139.8906 Q472.8906,140.1563 472.5156,140.1563 Q472.1719,140.1563 471.9688,139.9531 Q471.7656,139.7656 471.6563,139.25 Q471.6094,138.8906 471.4219,138.7031 Q471.0938,138.3281 470.4844,138.1094 Q469.875,137.8906 469.25,137.8906 Q468.4844,137.8906 467.8438,138.2188 Q467.2188,138.5469 466.7188,139.2969 Q466.2344,140.0469 466.2344,141.0781 L466.2344,142.1719 Q466.2344,143.4063 467.125,144.2344 Q468.0156,145.0469 469.6094,145.0469 Q470.5469,145.0469 471.2031,144.7969 Q471.5938,144.6406 472.0156,144.2031 Q472.2813,143.9375 472.4219,143.8594 Q472.5781,143.7813 472.7813,143.7813 Q473.1094,143.7813 473.3594,144.0469 Q473.625,144.2969 473.625,144.6406 Q473.625,144.9844 473.2813,145.3906 Q472.7813,145.9688 471.9844,146.2969 Q470.9063,146.75 469.6094,146.75 Q468.0938,146.75 466.8906,146.125 Q465.9063,145.625 465.2188,144.5625 Q464.5313,143.4844 464.5313,142.2031 L464.5313,141.0469 Q464.5313,139.7188 465.1406,138.5781 Q465.7656,137.4219 466.8594,136.8125 Q467.9531,136.1875 469.1875,136.1875 Q469.9219,136.1875 470.5625,136.3594 Q471.2188,136.5156 471.7656,136.875 Z " fill="#000000"/><text fill="#000000" font-family="sans-serif" font-size="14" lengthAdjust="spacing" textLength="94.165" x="483" y="146.7285">GeojsonRouter</text><line style="stroke:#181818;stroke-width:0.5;" x1="455" x2="579.165" y1="157" y2="157"/><line style="stroke:#181818;stroke-width:0.5;" x1="455" x2="579.165" y1="165" y2="165"/><ellipse cx="465" cy="179.3047" fill="#84BE84" rx="3" ry="3" style="stroke:#038048;stroke-width:1;"/><text fill="#000000" font-family="sans-serif" font-size="14" lengthAdjust="spacing" text-decoration="underline" textLength="42.7861" x="474" y="183.5332">stops()</text><ellipse cx="465" cy="196.9141" fill="#84BE84" rx="3" ry="3" style="stroke:#038048;stroke-width:1;"/><text fill="#000000" font-family="sans-serif" font-size="14" lengthAdjust="spacing" text-decoration="underline" textLength="54.4688" x="474" y="201.1426">shapes()</text></g><!--class StopsRouter--><g id="elem_StopsRouter"><rect codeLine="50" fill="#F1F1F1" height="100.8281" id="StopsRouter" rx="2.5" ry="2.5" style="stroke:#181818;stroke-width:0.5;" width="279.6543" x="139" y="116"/><ellipse cx="235.667" cy="132" fill="#ADD1B2" rx="11" ry="11" style="stroke:#181818;stroke-width:1;"/><path d="M238.4326,127.875 Q238.5889,127.6563 238.7764,127.5469 Q238.9639,127.4375 239.1826,127.4375 Q239.5576,127.4375 239.792,127.7031 Q240.0264,127.9531 240.0264,128.5625 L240.0264,130.0156 Q240.0264,130.625 239.792,130.8906 Q239.5576,131.1563 239.1826,131.1563 Q238.8389,131.1563 238.6357,130.9531 Q238.4326,130.7656 238.3232,130.25 Q238.2764,129.8906 238.0889,129.7031 Q237.7607,129.3281 237.1514,129.1094 Q236.542,128.8906 235.917,128.8906 Q235.1514,128.8906 234.5107,129.2188 Q233.8857,129.5469 233.3857,130.2969 Q232.9014,131.0469 232.9014,132.0781 L232.9014,133.1719 Q232.9014,134.4063 233.792,135.2344 Q234.6826,136.0469 236.2764,136.0469 Q237.2139,136.0469 237.8701,135.7969 Q238.2607,135.6406 238.6826,135.2031 Q238.9482,134.9375 239.0889,134.8594 Q239.2451,134.7813 239.4482,134.7813 Q239.7764,134.7813 240.0264,135.0469 Q240.292,135.2969 240.292,135.6406 Q240.292,135.9844 239.9482,136.3906 Q239.4482,136.9688 238.6514,137.2969 Q237.5732,137.75 236.2764,137.75 Q234.7607,137.75 233.5576,137.125 Q232.5732,136.625 231.8857,135.5625 Q231.1982,134.4844 231.1982,133.2031 L231.1982,132.0469 Q231.1982,130.7188 231.8076,129.5781 Q232.4326,128.4219 233.5264,127.8125 Q234.6201,127.1875 235.8545,127.1875 Q236.5889,127.1875 237.2295,127.3594 Q237.8857,127.5156 238.4326,127.875 Z " fill="#000000"/><text fill="#000000" font-family="sans-serif" font-size="14" lengthAdjust="spacing" textLength="77.8203" x="256.167" y="137.7285">StopsRouter</text><line style="stroke:#181818;stroke-width:0.5;" x1="140" x2="417.6543" y1="148" y2="148"/><line style="stroke:#181818;stroke-width:0.5;" x1="140" x2="417.6543" y1="156" y2="156"/><ellipse cx="150" cy="170.3047" fill="#84BE84" rx="3" ry="3" style="stroke:#038048;stroke-width:1;"/><text fill="#000000" font-family="sans-serif" font-size="14" lengthAdjust="spacing" text-decoration="underline" textLength="128.3789" x="159" y="174.5332">search(query: string)</text><ellipse cx="150" cy="187.9141" fill="#84BE84" rx="3" ry="3" style="stroke:#038048;stroke-width:1;"/><text fill="#000000" font-family="sans-serif" font-size="14" lengthAdjust="spacing" text-decoration="underline" textLength="253.6543" x="159" y="192.1426">neighbors(stopId: string, time: DateTime)</text><ellipse cx="150" cy="205.5234" fill="#84BE84" rx="3" ry="3" style="stroke:#038048;stroke-width:1;"/><text fill="#000000" font-family="sans-serif" font-size="14" lengthAdjust="spacing" text-decoration="underline" textLength="247.4541" x="159" y="209.752">nearby(stopId: string, distance: number)</text></g><!--class Database--><g id="elem_Database"><rect codeLine="14" fill="#F1F1F1" height="83.2188" id="Database" rx="2.5" ry="2.5" style="stroke:#181818;stroke-width:0.5;" width="246.2334" x="156" y="470"/><ellipse cx="244.9014" cy="486" fill="#ADD1B2" rx="11" ry="11" style="stroke:#181818;stroke-width:1;"/><path d="M247.667,481.875 Q247.8232,481.6563 248.0107,481.5469 Q248.1982,481.4375 248.417,481.4375 Q248.792,481.4375 249.0264,481.7031 Q249.2607,481.9531 249.2607,482.5625 L249.2607,484.0156 Q249.2607,484.625 249.0264,484.8906 Q248.792,485.1563 248.417,485.1563 Q248.0732,485.1563 247.8701,484.9531 Q247.667,484.7656 247.5576,484.25 Q247.5107,483.8906 247.3232,483.7031 Q246.9951,483.3281 246.3857,483.1094 Q245.7764,482.8906 245.1514,482.8906 Q244.3857,482.8906 243.7451,483.2188 Q243.1201,483.5469 242.6201,484.2969 Q242.1357,485.0469 242.1357,486.0781 L242.1357,487.1719 Q242.1357,488.4063 243.0264,489.2344 Q243.917,490.0469 245.5107,490.0469 Q246.4482,490.0469 247.1045,489.7969 Q247.4951,489.6406 247.917,489.2031 Q248.1826,488.9375 248.3232,488.8594 Q248.4795,488.7813 248.6826,488.7813 Q249.0107,488.7813 249.2607,489.0469 Q249.5264,489.2969 249.5264,489.6406 Q249.5264,489.9844 249.1826,490.3906 Q248.6826,490.9688 247.8857,491.2969 Q246.8076,491.75 245.5107,491.75 Q243.9951,491.75 242.792,491.125 Q241.8076,490.625 241.1201,489.5625 Q240.4326,488.4844 240.4326,487.2031 L240.4326,486.0469 Q240.4326,484.7188 241.042,483.5781 Q241.667,482.4219 242.7607,481.8125 Q243.8545,481.1875 245.0889,481.1875 Q245.8232,481.1875 246.4639,481.3594 Q247.1201,481.5156 247.667,481.875 Z " fill="#000000"/><text fill="#000000" font-family="sans-serif" font-size="14" lengthAdjust="spacing" textLength="59.9307" x="265.4014" y="491.7285">Database</text><line style="stroke:#181818;stroke-width:0.5;" x1="157" x2="401.2334" y1="502" y2="502"/><ellipse cx="167" cy="516.3047" fill="none" rx="3" ry="3" style="stroke:#038048;stroke-width:1;"/><text fill="#000000" font-family="sans-serif" font-size="14" lengthAdjust="spacing" text-decoration="underline" textLength="125.3164" x="176" y="520.5332">database: Database</text><line style="stroke:#181818;stroke-width:0.5;" x1="157" x2="401.2334" y1="527.6094" y2="527.6094"/><rect fill="#F24D5C" height="6" style="stroke:#C82930;stroke-width:1;" width="6" x="164" y="538.9141"/><text fill="#000000" font-family="sans-serif" font-size="14" lengthAdjust="spacing" text-decoration="underline" textLength="220.2334" x="176" y="546.1426">async ensureDatabase(): Database</text></g><!--class AdvancedQuery--><g id="elem_AdvancedQuery"><rect codeLine="19" fill="#F1F1F1" height="100.8281" id="AdvancedQuery" rx="2.5" ry="2.5" style="stroke:#181818;stroke-width:0.5;" width="513.1221" x="22.5" y="309"/><ellipse cx="224.6147" cy="325" fill="#ADD1B2" rx="11" ry="11" style="stroke:#181818;stroke-width:1;"/><path d="M227.3804,320.875 Q227.5366,320.6563 227.7241,320.5469 Q227.9116,320.4375 228.1304,320.4375 Q228.5054,320.4375 228.7397,320.7031 Q228.9741,320.9531 228.9741,321.5625 L228.9741,323.0156 Q228.9741,323.625 228.7397,323.8906 Q228.5054,324.1563 228.1304,324.1563 Q227.7866,324.1563 227.5835,323.9531 Q227.3804,323.7656 227.271,323.25 Q227.2241,322.8906 227.0366,322.7031 Q226.7085,322.3281 226.0991,322.1094 Q225.4897,321.8906 224.8647,321.8906 Q224.0991,321.8906 223.4585,322.2188 Q222.8335,322.5469 222.3335,323.2969 Q221.8491,324.0469 221.8491,325.0781 L221.8491,326.1719 Q221.8491,327.4063 222.7397,328.2344 Q223.6304,329.0469 225.2241,329.0469 Q226.1616,329.0469 226.8179,328.7969 Q227.2085,328.6406 227.6304,328.2031 Q227.896,327.9375 228.0366,327.8594 Q228.1929,327.7813 228.396,327.7813 Q228.7241,327.7813 228.9741,328.0469 Q229.2397,328.2969 229.2397,328.6406 Q229.2397,328.9844 228.896,329.3906 Q228.396,329.9688 227.5991,330.2969 Q226.521,330.75 225.2241,330.75 Q223.7085,330.75 222.5054,330.125 Q221.521,329.625 220.8335,328.5625 Q220.146,327.4844 220.146,326.2031 L220.146,325.0469 Q220.146,323.7188 220.7554,322.5781 Q221.3804,321.4219 222.4741,320.8125 Q223.5679,320.1875 224.8022,320.1875 Q225.5366,320.1875 226.1772,320.3594 Q226.8335,320.5156 227.3804,320.875 Z " fill="#000000"/><text fill="#000000" font-family="sans-serif" font-size="14" lengthAdjust="spacing" textLength="100.3926" x="245.1147" y="330.7285">AdvancedQuery</text><line style="stroke:#181818;stroke-width:0.5;" x1="23.5" x2="534.6221" y1="341" y2="341"/><line style="stroke:#181818;stroke-width:0.5;" x1="23.5" x2="534.6221" y1="349" y2="349"/><ellipse cx="33.5" cy="363.3047" fill="#84BE84" rx="3" ry="3" style="stroke:#038048;stroke-width:1;"/><text fill="#000000" font-family="sans-serif" font-size="14" lengthAdjust="spacing" text-decoration="underline" textLength="260.6611" x="42.5" y="367.5332">async searchStops(name: string): Object[]</text><ellipse cx="33.5" cy="380.9141" fill="#84BE84" rx="3" ry="3" style="stroke:#038048;stroke-width:1;"/><text fill="#000000" font-family="sans-serif" font-size="14" lengthAdjust="spacing" text-decoration="underline" textLength="345.4746" x="42.5" y="385.1426">async getNeighbors(stopId: string, time: string): Object[]</text><ellipse cx="33.5" cy="398.5234" fill="#84BE84" rx="3" ry="3" style="stroke:#038048;stroke-width:1;"/><text fill="#000000" font-family="sans-serif" font-size="14" lengthAdjust="spacing" text-decoration="underline" textLength="487.1221" x="42.5" y="402.752">async function getWalkingNeighbors(stopId: string, distance: number): Object[]</text></g><!--entity gtfsconfig--><g id="elem_gtfsconfig"><rect fill="#F1F1F1" height="40.6094" rx="2.5" ry="2.5" style="stroke:#181818;stroke-width:0.5;" width="108.5928" x="314.5" y="645"/><polygon fill="#F1F1F1" points="406.0928,650,406.0928,664,418.0928,664,418.0928,656,412.0928,650,406.0928,650" style="stroke:#181818;stroke-width:0.5;"/><line style="stroke:#181818;stroke-width:0.5;" x1="412.0928" x2="412.0928" y1="650" y2="656"/><line style="stroke:#181818;stroke-width:0.5;" x1="418.0928" x2="412.0928" y1="656" y2="656"/><text fill="#000000" font-family="sans-serif" font-size="14" lengthAdjust="spacing" textLength="78.5928" x="324.5" y="672.5332">gtfs.config.ts</text></g><!--entity agency--><g id="elem_agency"><rect fill="#F1F1F1" height="40.6094" rx="2.5" ry="2.5" style="stroke:#181818;stroke-width:0.5;" width="75.1445" x="351.5" y="882"/><polygon fill="#F1F1F1" points="409.6445,887,409.6445,901,421.6445,901,421.6445,893,415.6445,887,409.6445,887" style="stroke:#181818;stroke-width:0.5;"/><line style="stroke:#181818;stroke-width:0.5;" x1="415.6445" x2="415.6445" y1="887" y2="893"/><line style="stroke:#181818;stroke-width:0.5;" x1="421.6445" x2="415.6445" y1="893" y2="893"/><text fill="#000000" font-family="sans-serif" font-size="14" lengthAdjust="spacing" textLength="45.1445" x="361.5" y="909.5332">agency</text></g><!--entity calendar-dates--><g id="elem_calendar-dates"><rect fill="#F1F1F1" height="40.6094" rx="2.5" ry="2.5" style="stroke:#181818;stroke-width:0.5;" width="122.6133" x="461.5" y="882"/><polygon fill="#F1F1F1" points="567.1133,887,567.1133,901,579.1133,901,579.1133,893,573.1133,887,567.1133,887" style="stroke:#181818;stroke-width:0.5;"/><line style="stroke:#181818;stroke-width:0.5;" x1="573.1133" x2="573.1133" y1="887" y2="893"/><line style="stroke:#181818;stroke-width:0.5;" x1="579.1133" x2="573.1133" y1="893" y2="893"/><text fill="#000000" font-family="sans-serif" font-size="14" lengthAdjust="spacing" textLength="92.6133" x="471.5" y="909.5332">calendar-dates</text></g><!--entity feed-info--><g id="elem_feed-info"><rect fill="#F1F1F1" height="40.6094" rx="2.5" ry="2.5" style="stroke:#181818;stroke-width:0.5;" width="84.4824" x="620" y="882"/><polygon fill="#F1F1F1" points="687.4824,887,687.4824,901,699.4824,901,699.4824,893,693.4824,887,687.4824,887" style="stroke:#181818;stroke-width:0.5;"/><line style="stroke:#181818;stroke-width:0.5;" x1="693.4824" x2="693.4824" y1="887" y2="893"/><line style="stroke:#181818;stroke-width:0.5;" x1="699.4824" x2="693.4824" y1="893" y2="893"/><text fill="#000000" font-family="sans-serif" font-size="14" lengthAdjust="spacing" textLength="54.4824" x="630" y="909.5332">feed-info</text></g><!--entity pathways--><g id="elem_pathways"><rect fill="#F1F1F1" height="40.6094" rx="2.5" ry="2.5" style="stroke:#181818;stroke-width:0.5;" width="89.1445" x="352.5" y="983"/><polygon fill="#F1F1F1" points="424.6445,988,424.6445,1002,436.6445,1002,436.6445,994,430.6445,988,424.6445,988" style="stroke:#181818;stroke-width:0.5;"/><line style="stroke:#181818;stroke-width:0.5;" x1="430.6445" x2="430.6445" y1="988" y2="994"/><line style="stroke:#181818;stroke-width:0.5;" x1="436.6445" x2="430.6445" y1="994" y2="994"/><text fill="#000000" font-family="sans-serif" font-size="14" lengthAdjust="spacing" textLength="59.1445" x="362.5" y="1010.5332">pathways</text></g><!--entity routes--><g id="elem_routes"><rect fill="#F1F1F1" height="40.6094" rx="2.5" ry="2.5" style="stroke:#181818;stroke-width:0.5;" width="68.9102" x="476.5" y="983"/><polygon fill="#F1F1F1" points="528.4102,988,528.4102,1002,540.4102,1002,540.4102,994,534.4102,988,528.4102,988" style="stroke:#181818;stroke-width:0.5;"/><line style="stroke:#181818;stroke-width:0.5;" x1="534.4102" x2="534.4102" y1="988" y2="994"/><line style="stroke:#181818;stroke-width:0.5;" x1="540.4102" x2="534.4102" y1="994" y2="994"/><text fill="#000000" font-family="sans-serif" font-size="14" lengthAdjust="spacing" textLength="38.9102" x="486.5" y="1010.5332">routes</text></g><!--entity shapes--><g id="elem_shapes"><rect fill="#F1F1F1" height="40.6094" rx="2.5" ry="2.5" style="stroke:#181818;stroke-width:0.5;" width="75.1445" x="580.5" y="983"/><polygon fill="#F1F1F1" points="638.6445,988,638.6445,1002,650.6445,1002,650.6445,994,644.6445,988,638.6445,988" style="stroke:#181818;stroke-width:0.5;"/><line style="stroke:#181818;stroke-width:0.5;" x1="644.6445" x2="644.6445" y1="988" y2="994"/><line style="stroke:#181818;stroke-width:0.5;" x1="650.6445" x2="644.6445" y1="994" y2="994"/><text fill="#000000" font-family="sans-serif" font-size="14" lengthAdjust="spacing" textLength="45.1445" x="590.5" y="1010.5332">shapes</text></g><!--entity stop-times--><g id="elem_stop-times"><rect fill="#F1F1F1" height="40.6094" rx="2.5" ry="2.5" style="stroke:#181818;stroke-width:0.5;" width="94.5723" x="351.5" y="1084"/><polygon fill="#F1F1F1" points="429.0723,1089,429.0723,1103,441.0723,1103,441.0723,1095,435.0723,1089,429.0723,1089" style="stroke:#181818;stroke-width:0.5;"/><line style="stroke:#181818;stroke-width:0.5;" x1="435.0723" x2="435.0723" y1="1089" y2="1095"/><line style="stroke:#181818;stroke-width:0.5;" x1="441.0723" x2="435.0723" y1="1095" y2="1095"/><text fill="#000000" font-family="sans-serif" font-size="14" lengthAdjust="spacing" textLength="64.5723" x="361.5" y="1111.5332">stop-times</text></g><!--entity stops--><g id="elem_stops"><rect fill="#F1F1F1" height="40.6094" rx="2.5" ry="2.5" style="stroke:#181818;stroke-width:0.5;" width="63.4619" x="481.5" y="1084"/><polygon fill="#F1F1F1" points="527.9619,1089,527.9619,1103,539.9619,1103,539.9619,1095,533.9619,1089,527.9619,1089" style="stroke:#181818;stroke-width:0.5;"/><line style="stroke:#181818;stroke-width:0.5;" x1="533.9619" x2="533.9619" y1="1089" y2="1095"/><line style="stroke:#181818;stroke-width:0.5;" x1="539.9619" x2="533.9619" y1="1095" y2="1095"/><text fill="#000000" font-family="sans-serif" font-size="14" lengthAdjust="spacing" textLength="33.4619" x="491.5" y="1111.5332">stops</text></g><!--entity trips--><g id="elem_trips"><rect fill="#F1F1F1" height="40.6094" rx="2.5" ry="2.5" style="stroke:#181818;stroke-width:0.5;" width="56.4482" x="580" y="1084"/><polygon fill="#F1F1F1" points="619.4482,1089,619.4482,1103,631.4482,1103,631.4482,1095,625.4482,1089,619.4482,1089" style="stroke:#181818;stroke-width:0.5;"/><line style="stroke:#181818;stroke-width:0.5;" x1="625.4482" x2="625.4482" y1="1089" y2="1095"/><line style="stroke:#181818;stroke-width:0.5;" x1="631.4482" x2="625.4482" y1="1095" y2="1095"/><text fill="#000000" font-family="sans-serif" font-size="14" lengthAdjust="spacing" textLength="26.4482" x="590" y="1111.5332">trips</text></g><!--entity index--><g id="elem_index"><rect fill="#F1F1F1" height="40.6094" rx="2.5" ry="2.5" style="stroke:#181818;stroke-width:0.5;" width="78.248" x="65" y="7"/><polygon fill="#F1F1F1" points="126.248,12,126.248,26,138.248,26,138.248,18,132.248,12,126.248,12" style="stroke:#181818;stroke-width:0.5;"/><line style="stroke:#181818;stroke-width:0.5;" x1="132.248" x2="132.248" y1="12" y2="18"/><line style="stroke:#181818;stroke-width:0.5;" x1="138.248" x2="132.248" y1="18" y2="18"/><text fill="#000000" font-family="sans-serif" font-size="14" lengthAdjust="spacing" textLength="48.248" x="75" y="34.5332">index.ts</text></g><!--link index to Routes--><g id="link_index_Routes"><path codeLine="11" d="M104,48.13 C104,52.7913 104,58.0825 104,63.7781 C104,65.202 104,66.6512 104,68.1221 C104,68.8576 104,69.5985 104,70.3444 C104,70.7173 104,65.0915 104,65.4669 " fill="none" id="index-to-Routes" style="stroke:#181818;stroke-width:1;stroke-dasharray:7.0,7.0;"/><polygon fill="#181818" points="104,71.4669,108,62.4669,104,66.4669,100,62.4669,104,71.4669" style="stroke:#181818;stroke-width:1;"/></g><!--link AdvancedQuery to Database--><g id="link_AdvancedQuery_Database"><path codeLine="26" d="M279,410.03 C279,429.32 279,445.15 279,463.53 " fill="none" id="AdvancedQuery-to-Database" style="stroke:#181818;stroke-width:1;stroke-dasharray:7.0,7.0;"/><polygon fill="#181818" points="279,469.53,283,460.53,279,464.53,275,460.53,279,469.53" style="stroke:#181818;stroke-width:1;"/></g><!--link Database to Configs--><g id="link_Database_Configs"><path codeLine="29" d="M279,553.23 C279,564.31 279,576.6756 279,589.023 C279,592.1098 279,595.1955 279,598.2597 C279,599.0257 279,593.7904 279,594.5535 " fill="none" id="Database-to-Configs" style="stroke:#181818;stroke-width:1;stroke-dasharray:7.0,7.0;"/><polygon fill="#181818" points="279,600.5535,283,591.5535,279,595.5535,275,591.5535,279,600.5535" style="stroke:#181818;stroke-width:1;"/></g><!--link StopsRouter to AdvancedQuery--><g id="link_StopsRouter_AdvancedQuery"><path codeLine="55" d="M279,217.18 C279,245.37 279,274.53 279,302.73 " fill="none" id="StopsRouter-to-AdvancedQuery" style="stroke:#181818;stroke-width:1;stroke-dasharray:7.0,7.0;"/><polygon fill="#181818" points="279,308.73,283,299.73,279,303.73,275,299.73,279,308.73" style="stroke:#181818;stroke-width:1;"/></g><!--link Configs to Models--><!--SRC=[bLHDRvmm4BtpAqQvPAE6LNhTGwGgbQf8_Kwg7h8v3FO0te1DRPE4HllVEsQ1PLUGg5nOvhrvjj-yzIbiy14Xtg25gzNwkpMPnV8ZUboBt0XJeATcNQXaNHMeVLqMQszCuORFPUYCAoNC4oLHT0eNu0tuscemQGfSr-uS9ALO5nxUNp33FIXT8Iy3ea3dFdXlLL9xkcRkZVfBS155M1JcgLJFIcVSKL3gWwnLMUv1Aal2AwEPPhrAKNWuKLhIyzAx4q07xKSKjIzOBY_Xfs5z5qKLYWVC27vvLJXuYO2VTXCGZfoWewuOddVmuZnw9ROWEtGry0PMl6UXQxG0qgwsrFCMPqSzssYqwWVvY5gG_56JRQQNteawGYlo6sygjz1OyaOSkwOpLl-MRDYEk_lvvepyLsBh4cFTmh76jUpxpy6h_rHBQzsw7sH_Oy73pERLfU9cFk4AT5qcPCShZEquD2ACR32D6UsubiE80dnbTAeo5nBN3_MsgIWCzHJs1jzQVAHYA8OdjQQyETZc4VWPVR_TOyJe2SIRMJblfiMuFYbLeSzNSBUhdtVuFNkrfvHAXonFD1zxtK5RVc_tqT_z5Gwo_udCnXdT8dOwXQvDtjaab2Fxtc7RaMoRrbT5sr0l_eIP3n6S8ketqil9e5l-DTECDcdUJkPe_-ETXx3jydUGqMXaQPV5xf3xEodpgLkA5knlfb3QLSO2NuoauJxgYp8PkTONdSYfn15mk29Jj6XEPb211Mc9DkRhZDmSAoMIiTAfcIE4a3vXCojWsuJDeRkupABiV1o6-YfZ5kJPZi5jDrEskfzHV9ShAKdVnvUTxVy0]--></g></svg>