<svg xmlns="http://www.w3.org/2000/svg" xmlns:xlink="http://www.w3.org/1999/xlink" contentStyleType="text/css" height="494px" preserveAspectRatio="none" style="width:1652px;height:494px;background:#FFFFFF;" version="1.1" viewBox="0 0 1652 494" width="1652px" zoomAndPan="magnify"><defs/><g><!--cluster Models--><g id="cluster_Models"><path d="M8.5,6 L57.7275,6 A3.75,3.75 0 0 1 60.2275,8.5 L67.2275,29.6094 L1242.5,29.6094 A2.5,2.5 0 0 1 1245,32.1094 L1245,484.5 A2.5,2.5 0 0 1 1242.5,487 L8.5,487 A2.5,2.5 0 0 1 6,484.5 L6,8.5 A2.5,2.5 0 0 1 8.5,6 " fill="none" style="stroke:#000000;stroke-width:1.5;"/><line style="stroke:#000000;stroke-width:1.5;" x1="6" x2="67.2275" y1="29.6094" y2="29.6094"/><text fill="#000000" font-family="sans-serif" font-size="14" font-weight="bold" lengthAdjust="spacing" textLength="48.2275" x="10" y="22.5332">Models</text></g><!--cluster Pathfinding--><g id="cluster_Pathfinding"><path d="M715.5,50 L793.4863,50 A3.75,3.75 0 0 1 795.9863,52.5 L802.9863,73.6094 L1218.5,73.6094 A2.5,2.5 0 0 1 1221,76.1094 L1221,449.5 A2.5,2.5 0 0 1 1218.5,452 L715.5,452 A2.5,2.5 0 0 1 713,449.5 L713,52.5 A2.5,2.5 0 0 1 715.5,50 " fill="none" style="stroke:#000000;stroke-width:1.5;"/><line style="stroke:#000000;stroke-width:1.5;" x1="713" x2="802.9863" y1="73.6094" y2="73.6094"/><text fill="#000000" font-family="sans-serif" font-size="14" font-weight="bold" lengthAdjust="spacing" textLength="76.9863" x="717" y="66.5332">Pathfinding</text></g><!--cluster Services--><g id="cluster_Services"><path d="M1271.5,325.5 L1330.1064,325.5 A3.75,3.75 0 0 1 1332.6064,328 L1339.6064,349.1094 L1510.5,349.1094 A2.5,2.5 0 0 1 1513,351.6094 L1513,458 A2.5,2.5 0 0 1 1510.5,460.5 L1271.5,460.5 A2.5,2.5 0 0 1 1269,458 L1269,328 A2.5,2.5 0 0 1 1271.5,325.5 " fill="none" style="stroke:#000000;stroke-width:1.5;"/><line style="stroke:#000000;stroke-width:1.5;" x1="1269" x2="1339.6064" y1="349.1094" y2="349.1094"/><text fill="#000000" font-family="sans-serif" font-size="14" font-weight="bold" lengthAdjust="spacing" textLength="57.6064" x="1273" y="342.0332">Services</text></g><!--cluster Utils--><g id="cluster_Utils"><path d="M1271.5,102.5 L1302.8379,102.5 A3.75,3.75 0 0 1 1305.3379,105 L1312.3379,126.1094 L1642.5,126.1094 A2.5,2.5 0 0 1 1645,128.6094 L1645,218 A2.5,2.5 0 0 1 1642.5,220.5 L1271.5,220.5 A2.5,2.5 0 0 1 1269,218 L1269,105 A2.5,2.5 0 0 1 1271.5,102.5 " fill="none" style="stroke:#000000;stroke-width:1.5;"/><line style="stroke:#000000;stroke-width:1.5;" x1="1269" x2="1312.3379" y1="126.1094" y2="126.1094"/><text fill="#000000" font-family="sans-serif" font-size="14" font-weight="bold" lengthAdjust="spacing" textLength="30.3379" x="1273" y="119.0332">Utils</text></g><!--class Coordinate--><g id="elem_Coordinate"><rect codeLine="9" fill="#F1F1F1" height="100.8281" id="Coordinate" rx="2.5" ry="2.5" style="stroke:#181818;stroke-width:0.5;" width="250.8955" x="22.5" y="121"/><ellipse cx="109.4531" cy="137" fill="#ADD1B2" rx="11" ry="11" style="stroke:#181818;stroke-width:1.0;"/><path d="M112.2188,132.875 Q112.375,132.6563 112.5625,132.5469 Q112.75,132.4375 112.9688,132.4375 Q113.3438,132.4375 113.5781,132.7031 Q113.8125,132.9531 113.8125,133.5625 L113.8125,135.0156 Q113.8125,135.625 113.5781,135.8906 Q113.3438,136.1563 112.9688,136.1563 Q112.625,136.1563 112.4219,135.9531 Q112.2188,135.7656 112.1094,135.25 Q112.0625,134.8906 111.875,134.7031 Q111.5469,134.3281 110.9375,134.1094 Q110.3281,133.8906 109.7031,133.8906 Q108.9375,133.8906 108.2969,134.2188 Q107.6719,134.5469 107.1719,135.2969 Q106.6875,136.0469 106.6875,137.0781 L106.6875,138.1719 Q106.6875,139.4063 107.5781,140.2344 Q108.4688,141.0469 110.0625,141.0469 Q111,141.0469 111.6563,140.7969 Q112.0469,140.6406 112.4688,140.2031 Q112.7344,139.9375 112.875,139.8594 Q113.0313,139.7813 113.2344,139.7813 Q113.5625,139.7813 113.8125,140.0469 Q114.0781,140.2969 114.0781,140.6406 Q114.0781,140.9844 113.7344,141.3906 Q113.2344,141.9688 112.4375,142.2969 Q111.3594,142.75 110.0625,142.75 Q108.5469,142.75 107.3438,142.125 Q106.3594,141.625 105.6719,140.5625 Q104.9844,139.4844 104.9844,138.2031 L104.9844,137.0469 Q104.9844,135.7188 105.5938,134.5781 Q106.2188,133.4219 107.3125,132.8125 Q108.4063,132.1875 109.6406,132.1875 Q110.375,132.1875 111.0156,132.3594 Q111.6719,132.5156 112.2188,132.875 Z " fill="#000000"/><text fill="#000000" font-family="sans-serif" font-size="14" lengthAdjust="spacing" textLength="68.4893" x="129.9531" y="142.7285">Coordinate</text><line style="stroke:#181818;stroke-width:0.5;" x1="23.5" x2="272.3955" y1="153" y2="153"/><ellipse cx="33.5" cy="167.3047" fill="none" rx="3" ry="3" style="stroke:#038048;stroke-width:1.0;"/><text fill="#000000" font-family="sans-serif" font-size="14" lengthAdjust="spacing" textLength="140.082" x="42.5" y="171.5332">lat: number {readOnly}</text><ellipse cx="33.5" cy="184.9141" fill="none" rx="3" ry="3" style="stroke:#038048;stroke-width:1.0;"/><text fill="#000000" font-family="sans-serif" font-size="14" lengthAdjust="spacing" textLength="143.9785" x="42.5" y="189.1426">lon: number {readOnly}</text><line style="stroke:#181818;stroke-width:0.5;" x1="23.5" x2="272.3955" y1="196.2188" y2="196.2188"/><ellipse cx="33.5" cy="210.5234" fill="#84BE84" rx="3" ry="3" style="stroke:#038048;stroke-width:1.0;"/><text fill="#000000" font-family="sans-serif" font-size="14" lengthAdjust="spacing" textLength="224.8955" x="42.5" y="214.752">distance(other: Coordinate): number</text></g><!--class Vertex--><g id="elem_Vertex"><rect codeLine="15" fill="#F1F1F1" height="171.2656" id="Vertex" rx="2.5" ry="2.5" style="stroke:#181818;stroke-width:0.5;" width="220.5713" x="472.5" y="86"/><ellipse cx="558.3047" cy="102" fill="#ADD1B2" rx="11" ry="11" style="stroke:#181818;stroke-width:1.0;"/><path d="M561.0703,97.875 Q561.2266,97.6563 561.4141,97.5469 Q561.6016,97.4375 561.8203,97.4375 Q562.1953,97.4375 562.4297,97.7031 Q562.6641,97.9531 562.6641,98.5625 L562.6641,100.0156 Q562.6641,100.625 562.4297,100.8906 Q562.1953,101.1563 561.8203,101.1563 Q561.4766,101.1563 561.2734,100.9531 Q561.0703,100.7656 560.9609,100.25 Q560.9141,99.8906 560.7266,99.7031 Q560.3984,99.3281 559.7891,99.1094 Q559.1797,98.8906 558.5547,98.8906 Q557.7891,98.8906 557.1484,99.2188 Q556.5234,99.5469 556.0234,100.2969 Q555.5391,101.0469 555.5391,102.0781 L555.5391,103.1719 Q555.5391,104.4063 556.4297,105.2344 Q557.3203,106.0469 558.9141,106.0469 Q559.8516,106.0469 560.5078,105.7969 Q560.8984,105.6406 561.3203,105.2031 Q561.5859,104.9375 561.7266,104.8594 Q561.8828,104.7813 562.0859,104.7813 Q562.4141,104.7813 562.6641,105.0469 Q562.9297,105.2969 562.9297,105.6406 Q562.9297,105.9844 562.5859,106.3906 Q562.0859,106.9688 561.2891,107.2969 Q560.2109,107.75 558.9141,107.75 Q557.3984,107.75 556.1953,107.125 Q555.2109,106.625 554.5234,105.5625 Q553.8359,104.4844 553.8359,103.2031 L553.8359,102.0469 Q553.8359,100.7188 554.4453,99.5781 Q555.0703,98.4219 556.1641,97.8125 Q557.2578,97.1875 558.4922,97.1875 Q559.2266,97.1875 559.8672,97.3594 Q560.5234,97.5156 561.0703,97.875 Z " fill="#000000"/><text fill="#000000" font-family="sans-serif" font-size="14" lengthAdjust="spacing" textLength="40.4619" x="578.8047" y="107.7285">Vertex</text><line style="stroke:#181818;stroke-width:0.5;" x1="473.5" x2="692.0713" y1="118" y2="118"/><ellipse cx="483.5" cy="132.3047" fill="none" rx="3" ry="3" style="stroke:#038048;stroke-width:1.0;"/><text fill="#000000" font-family="sans-serif" font-size="14" lengthAdjust="spacing" textLength="122.958" x="492.5" y="136.5332">id: string {readOnly}</text><ellipse cx="483.5" cy="149.9141" fill="none" rx="3" ry="3" style="stroke:#038048;stroke-width:1.0;"/><text fill="#000000" font-family="sans-serif" font-size="14" lengthAdjust="spacing" textLength="194.5713" x="492.5" y="154.1426">location: Coordinate {readOnly}</text><ellipse cx="483.5" cy="167.5234" fill="none" rx="3" ry="3" style="stroke:#038048;stroke-width:1.0;"/><text fill="#000000" font-family="sans-serif" font-size="14" lengthAdjust="spacing" textLength="97.2891" x="492.5" y="171.752">visited: boolean</text><ellipse cx="483.5" cy="185.1328" fill="none" rx="3" ry="3" style="stroke:#038048;stroke-width:1.0;"/><text fill="#000000" font-family="sans-serif" font-size="14" lengthAdjust="spacing" textLength="107.3789" x="492.5" y="189.3613">heuristic: number</text><ellipse cx="483.5" cy="202.7422" fill="none" rx="3" ry="3" style="stroke:#038048;stroke-width:1.0;"/><text fill="#000000" font-family="sans-serif" font-size="14" lengthAdjust="spacing" textLength="115.1787" x="492.5" y="206.9707">distance: number?</text><ellipse cx="483.5" cy="220.3516" fill="none" rx="3" ry="3" style="stroke:#038048;stroke-width:1.0;"/><text fill="#000000" font-family="sans-serif" font-size="14" lengthAdjust="spacing" textLength="95.7236" x="492.5" y="224.5801">parent: Vertex?</text><line style="stroke:#181818;stroke-width:0.5;" x1="473.5" x2="692.0713" y1="231.6563" y2="231.6563"/><ellipse cx="483.5" cy="245.9609" fill="#84BE84" rx="3" ry="3" style="stroke:#038048;stroke-width:1.0;"/><text fill="#000000" font-family="sans-serif" font-size="14" lengthAdjust="spacing" textLength="136.9443" x="492.5" y="250.1895">getChildren(): Vertex[]</text></g><path d="M308.5,145 L308.5,187.7031 A0,0 0 0 0 308.5,187.7031 L437.8862,187.7031 A0,0 0 0 0 437.8862,187.7031 L437.8862,170.3516 L476.5,130.8047 L437.8862,162.3516 L437.8862,155 L427.8862,145 L308.5,145 A0,0 0 0 0 308.5,145 " fill="#FEFFDD" style="stroke:#181818;stroke-width:0.5;"/><path d="M427.8862,145 L427.8862,155 L437.8862,155 L427.8862,145 " fill="#FEFFDD" style="stroke:#181818;stroke-width:0.5;"/><text fill="#000000" font-family="sans-serif" font-size="13" lengthAdjust="spacing" textLength="108.3862" x="314.5" y="163.4951">a cs&#250;cshoz tartoz&#243;</text><text fill="#000000" font-family="sans-serif" font-size="13" lengthAdjust="spacing" textLength="98.998" x="314.5" y="179.8467">meg&#225;ll&#243; stopId-ja</text><!--class DirectedWeightedEdge--><g id="elem_DirectedWeightedEdge"><rect codeLine="33" fill="#F1F1F1" height="136.0469" id="DirectedWeightedEdge" rx="2.5" ry="2.5" style="stroke:#181818;stroke-width:0.5;" width="207.3438" x="462.5" y="335"/><ellipse cx="491.6174" cy="351" fill="#ADD1B2" rx="11" ry="11" style="stroke:#181818;stroke-width:1.0;"/><path d="M494.3831,346.875 Q494.5393,346.6563 494.7268,346.5469 Q494.9143,346.4375 495.1331,346.4375 Q495.5081,346.4375 495.7424,346.7031 Q495.9768,346.9531 495.9768,347.5625 L495.9768,349.0156 Q495.9768,349.625 495.7424,349.8906 Q495.5081,350.1563 495.1331,350.1563 Q494.7893,350.1563 494.5862,349.9531 Q494.3831,349.7656 494.2737,349.25 Q494.2268,348.8906 494.0393,348.7031 Q493.7112,348.3281 493.1018,348.1094 Q492.4924,347.8906 491.8674,347.8906 Q491.1018,347.8906 490.4612,348.2188 Q489.8362,348.5469 489.3362,349.2969 Q488.8518,350.0469 488.8518,351.0781 L488.8518,352.1719 Q488.8518,353.4063 489.7424,354.2344 Q490.6331,355.0469 492.2268,355.0469 Q493.1643,355.0469 493.8206,354.7969 Q494.2112,354.6406 494.6331,354.2031 Q494.8987,353.9375 495.0393,353.8594 Q495.1956,353.7813 495.3987,353.7813 Q495.7268,353.7813 495.9768,354.0469 Q496.2424,354.2969 496.2424,354.6406 Q496.2424,354.9844 495.8987,355.3906 Q495.3987,355.9688 494.6018,356.2969 Q493.5237,356.75 492.2268,356.75 Q490.7112,356.75 489.5081,356.125 Q488.5237,355.625 487.8362,354.5625 Q487.1487,353.4844 487.1487,352.2031 L487.1487,351.0469 Q487.1487,349.7188 487.7581,348.5781 Q488.3831,347.4219 489.4768,346.8125 Q490.5706,346.1875 491.8049,346.1875 Q492.5393,346.1875 493.1799,346.3594 Q493.8362,346.5156 494.3831,346.875 Z " fill="#000000"/><text fill="#000000" font-family="sans-serif" font-size="14" lengthAdjust="spacing" textLength="143.9717" x="508.7546" y="356.7285">DirectedWeightedEdge</text><line style="stroke:#181818;stroke-width:0.5;" x1="463.5" x2="668.8438" y1="367" y2="367"/><ellipse cx="473.5" cy="381.3047" fill="none" rx="3" ry="3" style="stroke:#038048;stroke-width:1.0;"/><text fill="#000000" font-family="sans-serif" font-size="14" lengthAdjust="spacing" textLength="181.3438" x="482.5" y="385.5332">path: Coordinate[] {readOnly}</text><ellipse cx="473.5" cy="398.9141" fill="none" rx="3" ry="3" style="stroke:#038048;stroke-width:1.0;"/><text fill="#000000" font-family="sans-serif" font-size="14" lengthAdjust="spacing" textLength="165.7646" x="482.5" y="403.1426">weight: number {readOnly}</text><ellipse cx="473.5" cy="416.5234" fill="none" rx="3" ry="3" style="stroke:#038048;stroke-width:1.0;"/><text fill="#000000" font-family="sans-serif" font-size="14" lengthAdjust="spacing" textLength="160.3096" x="482.5" y="420.752">source: Vertex {readOnly}</text><ellipse cx="473.5" cy="434.1328" fill="none" rx="3" ry="3" style="stroke:#038048;stroke-width:1.0;"/><text fill="#000000" font-family="sans-serif" font-size="14" lengthAdjust="spacing" textLength="154.0889" x="482.5" y="438.3613">target: Vertex {readOnly}</text><ellipse cx="473.5" cy="451.7422" fill="none" rx="3" ry="3" style="stroke:#038048;stroke-width:1.0;"/><text fill="#000000" font-family="sans-serif" font-size="14" lengthAdjust="spacing" textLength="97.2891" x="482.5" y="455.9707">visited: boolean</text><line style="stroke:#181818;stroke-width:0.5;" x1="463.5" x2="668.8438" y1="463.0469" y2="463.0469"/></g><!--class BFS--><g id="elem_BFS"><rect codeLine="42" fill="#F1F1F1" height="65.6094" id="BFS" rx="2.5" ry="2.5" style="stroke:#181818;stroke-width:0.5;" width="59.2275" x="772.5" y="370"/><ellipse cx="787.5" cy="386" fill="#ADD1B2" rx="11" ry="11" style="stroke:#181818;stroke-width:1.0;"/><path d="M790.2656,381.875 Q790.4219,381.6563 790.6094,381.5469 Q790.7969,381.4375 791.0156,381.4375 Q791.3906,381.4375 791.625,381.7031 Q791.8594,381.9531 791.8594,382.5625 L791.8594,384.0156 Q791.8594,384.625 791.625,384.8906 Q791.3906,385.1563 791.0156,385.1563 Q790.6719,385.1563 790.4688,384.9531 Q790.2656,384.7656 790.1563,384.25 Q790.1094,383.8906 789.9219,383.7031 Q789.5938,383.3281 788.9844,383.1094 Q788.375,382.8906 787.75,382.8906 Q786.9844,382.8906 786.3438,383.2188 Q785.7188,383.5469 785.2188,384.2969 Q784.7344,385.0469 784.7344,386.0781 L784.7344,387.1719 Q784.7344,388.4063 785.625,389.2344 Q786.5156,390.0469 788.1094,390.0469 Q789.0469,390.0469 789.7031,389.7969 Q790.0938,389.6406 790.5156,389.2031 Q790.7813,388.9375 790.9219,388.8594 Q791.0781,388.7813 791.2813,388.7813 Q791.6094,388.7813 791.8594,389.0469 Q792.125,389.2969 792.125,389.6406 Q792.125,389.9844 791.7813,390.3906 Q791.2813,390.9688 790.4844,391.2969 Q789.4063,391.75 788.1094,391.75 Q786.5938,391.75 785.3906,391.125 Q784.4063,390.625 783.7188,389.5625 Q783.0313,388.4844 783.0313,387.2031 L783.0313,386.0469 Q783.0313,384.7188 783.6406,383.5781 Q784.2656,382.4219 785.3594,381.8125 Q786.4531,381.1875 787.6875,381.1875 Q788.4219,381.1875 789.0625,381.3594 Q789.7188,381.5156 790.2656,381.875 Z " fill="#000000"/><text fill="#000000" font-family="sans-serif" font-size="14" lengthAdjust="spacing" textLength="27.2275" x="801.5" y="391.7285">BFS</text><line style="stroke:#181818;stroke-width:0.5;" x1="773.5" x2="830.7275" y1="402" y2="402"/><text fill="#000000" font-family="sans-serif" font-size="14" lengthAdjust="spacing" textLength="11.6689" x="778.5" y="420.5332">...</text><line style="stroke:#181818;stroke-width:0.5;" x1="773.5" x2="830.7275" y1="427.6094" y2="427.6094"/></g><!--class Dijkstra--><g id="elem_Dijkstra"><rect codeLine="46" fill="#F1F1F1" height="65.6094" id="Dijkstra" rx="2.5" ry="2.5" style="stroke:#181818;stroke-width:0.5;" width="78.6689" x="866.5" y="370"/><ellipse cx="881.5" cy="386" fill="#ADD1B2" rx="11" ry="11" style="stroke:#181818;stroke-width:1.0;"/><path d="M884.2656,381.875 Q884.4219,381.6563 884.6094,381.5469 Q884.7969,381.4375 885.0156,381.4375 Q885.3906,381.4375 885.625,381.7031 Q885.8594,381.9531 885.8594,382.5625 L885.8594,384.0156 Q885.8594,384.625 885.625,384.8906 Q885.3906,385.1563 885.0156,385.1563 Q884.6719,385.1563 884.4688,384.9531 Q884.2656,384.7656 884.1563,384.25 Q884.1094,383.8906 883.9219,383.7031 Q883.5938,383.3281 882.9844,383.1094 Q882.375,382.8906 881.75,382.8906 Q880.9844,382.8906 880.3438,383.2188 Q879.7188,383.5469 879.2188,384.2969 Q878.7344,385.0469 878.7344,386.0781 L878.7344,387.1719 Q878.7344,388.4063 879.625,389.2344 Q880.5156,390.0469 882.1094,390.0469 Q883.0469,390.0469 883.7031,389.7969 Q884.0938,389.6406 884.5156,389.2031 Q884.7813,388.9375 884.9219,388.8594 Q885.0781,388.7813 885.2813,388.7813 Q885.6094,388.7813 885.8594,389.0469 Q886.125,389.2969 886.125,389.6406 Q886.125,389.9844 885.7813,390.3906 Q885.2813,390.9688 884.4844,391.2969 Q883.4063,391.75 882.1094,391.75 Q880.5938,391.75 879.3906,391.125 Q878.4063,390.625 877.7188,389.5625 Q877.0313,388.4844 877.0313,387.2031 L877.0313,386.0469 Q877.0313,384.7188 877.6406,383.5781 Q878.2656,382.4219 879.3594,381.8125 Q880.4531,381.1875 881.6875,381.1875 Q882.4219,381.1875 883.0625,381.3594 Q883.7188,381.5156 884.2656,381.875 Z " fill="#000000"/><text fill="#000000" font-family="sans-serif" font-size="14" lengthAdjust="spacing" textLength="46.6689" x="895.5" y="391.7285">Dijkstra</text><line style="stroke:#181818;stroke-width:0.5;" x1="867.5" x2="944.1689" y1="402" y2="402"/><text fill="#000000" font-family="sans-serif" font-size="14" lengthAdjust="spacing" textLength="11.6689" x="872.5" y="420.5332">...</text><line style="stroke:#181818;stroke-width:0.5;" x1="867.5" x2="944.1689" y1="427.6094" y2="427.6094"/></g><!--class Greedy--><g id="elem_Greedy"><rect codeLine="50" fill="#F1F1F1" height="65.6094" id="Greedy" rx="2.5" ry="2.5" style="stroke:#181818;stroke-width:0.5;" width="77.9102" x="981" y="370"/><ellipse cx="996" cy="386" fill="#ADD1B2" rx="11" ry="11" style="stroke:#181818;stroke-width:1.0;"/><path d="M998.7656,381.875 Q998.9219,381.6563 999.1094,381.5469 Q999.2969,381.4375 999.5156,381.4375 Q999.8906,381.4375 1000.125,381.7031 Q1000.3594,381.9531 1000.3594,382.5625 L1000.3594,384.0156 Q1000.3594,384.625 1000.125,384.8906 Q999.8906,385.1563 999.5156,385.1563 Q999.1719,385.1563 998.9688,384.9531 Q998.7656,384.7656 998.6563,384.25 Q998.6094,383.8906 998.4219,383.7031 Q998.0938,383.3281 997.4844,383.1094 Q996.875,382.8906 996.25,382.8906 Q995.4844,382.8906 994.8438,383.2188 Q994.2188,383.5469 993.7188,384.2969 Q993.2344,385.0469 993.2344,386.0781 L993.2344,387.1719 Q993.2344,388.4063 994.125,389.2344 Q995.0156,390.0469 996.6094,390.0469 Q997.5469,390.0469 998.2031,389.7969 Q998.5938,389.6406 999.0156,389.2031 Q999.2813,388.9375 999.4219,388.8594 Q999.5781,388.7813 999.7813,388.7813 Q1000.1094,388.7813 1000.3594,389.0469 Q1000.625,389.2969 1000.625,389.6406 Q1000.625,389.9844 1000.2813,390.3906 Q999.7813,390.9688 998.9844,391.2969 Q997.9063,391.75 996.6094,391.75 Q995.0938,391.75 993.8906,391.125 Q992.9063,390.625 992.2188,389.5625 Q991.5313,388.4844 991.5313,387.2031 L991.5313,386.0469 Q991.5313,384.7188 992.1406,383.5781 Q992.7656,382.4219 993.8594,381.8125 Q994.9531,381.1875 996.1875,381.1875 Q996.9219,381.1875 997.5625,381.3594 Q998.2188,381.5156 998.7656,381.875 Z " fill="#000000"/><text fill="#000000" font-family="sans-serif" font-size="14" lengthAdjust="spacing" textLength="45.9102" x="1010" y="391.7285">Greedy</text><line style="stroke:#181818;stroke-width:0.5;" x1="982" x2="1057.9102" y1="402" y2="402"/><text fill="#000000" font-family="sans-serif" font-size="14" lengthAdjust="spacing" textLength="11.6689" x="987" y="420.5332">...</text><line style="stroke:#181818;stroke-width:0.5;" x1="982" x2="1057.9102" y1="427.6094" y2="427.6094"/></g><!--class AStar--><g id="elem_AStar"><rect codeLine="54" fill="#F1F1F1" height="65.6094" id="AStar" rx="2.5" ry="2.5" style="stroke:#181818;stroke-width:0.5;" width="67.0137" x="1094.5" y="370"/><ellipse cx="1109.5" cy="386" fill="#ADD1B2" rx="11" ry="11" style="stroke:#181818;stroke-width:1.0;"/><path d="M1112.2656,381.875 Q1112.4219,381.6563 1112.6094,381.5469 Q1112.7969,381.4375 1113.0156,381.4375 Q1113.3906,381.4375 1113.625,381.7031 Q1113.8594,381.9531 1113.8594,382.5625 L1113.8594,384.0156 Q1113.8594,384.625 1113.625,384.8906 Q1113.3906,385.1563 1113.0156,385.1563 Q1112.6719,385.1563 1112.4688,384.9531 Q1112.2656,384.7656 1112.1563,384.25 Q1112.1094,383.8906 1111.9219,383.7031 Q1111.5938,383.3281 1110.9844,383.1094 Q1110.375,382.8906 1109.75,382.8906 Q1108.9844,382.8906 1108.3438,383.2188 Q1107.7188,383.5469 1107.2188,384.2969 Q1106.7344,385.0469 1106.7344,386.0781 L1106.7344,387.1719 Q1106.7344,388.4063 1107.625,389.2344 Q1108.5156,390.0469 1110.1094,390.0469 Q1111.0469,390.0469 1111.7031,389.7969 Q1112.0938,389.6406 1112.5156,389.2031 Q1112.7813,388.9375 1112.9219,388.8594 Q1113.0781,388.7813 1113.2813,388.7813 Q1113.6094,388.7813 1113.8594,389.0469 Q1114.125,389.2969 1114.125,389.6406 Q1114.125,389.9844 1113.7813,390.3906 Q1113.2813,390.9688 1112.4844,391.2969 Q1111.4063,391.75 1110.1094,391.75 Q1108.5938,391.75 1107.3906,391.125 Q1106.4063,390.625 1105.7188,389.5625 Q1105.0313,388.4844 1105.0313,387.2031 L1105.0313,386.0469 Q1105.0313,384.7188 1105.6406,383.5781 Q1106.2656,382.4219 1107.3594,381.8125 Q1108.4531,381.1875 1109.6875,381.1875 Q1110.4219,381.1875 1111.0625,381.3594 Q1111.7188,381.5156 1112.2656,381.875 Z " fill="#000000"/><text fill="#000000" font-family="sans-serif" font-size="14" lengthAdjust="spacing" textLength="35.0137" x="1123.5" y="391.7285">AStar</text><line style="stroke:#181818;stroke-width:0.5;" x1="1095.5" x2="1160.5137" y1="402" y2="402"/><text fill="#000000" font-family="sans-serif" font-size="14" lengthAdjust="spacing" textLength="11.6689" x="1100.5" y="420.5332">...</text><line style="stroke:#181818;stroke-width:0.5;" x1="1095.5" x2="1160.5137" y1="427.6094" y2="427.6094"/></g><!--class Pathfinding--><g id="elem_Pathfinding"><rect codeLine="58" fill="#F1F1F1" height="171.2656" id="Pathfinding" rx="2.5" ry="2.5" style="stroke:#181818;stroke-width:0.5;" width="475.7295" x="729" y="86"/><ellipse cx="927.5874" cy="102" fill="#B4A7E5" rx="11" ry="11" style="stroke:#181818;stroke-width:1.0;"/><path d="M928.5405,98.6406 L928.5405,105.2969 L930.2593,105.2969 Q930.8687,105.2969 931.1343,105.5313 Q931.3999,105.7656 931.3999,106.1563 Q931.3999,106.5313 931.1343,106.7656 Q930.8687,107 930.2593,107 L925.1187,107 Q924.5093,107 924.2437,106.7656 Q923.978,106.5313 923.978,106.1406 Q923.978,105.7656 924.2437,105.5313 Q924.5093,105.2969 925.1187,105.2969 L926.8374,105.2969 L926.8374,98.6406 L925.1187,98.6406 Q924.5093,98.6406 924.2437,98.4063 Q923.978,98.1719 923.978,97.7813 Q923.978,97.4063 924.2437,97.1719 Q924.5093,96.9375 925.1187,96.9375 L930.2593,96.9375 Q930.8687,96.9375 931.1343,97.1719 Q931.3999,97.4063 931.3999,97.7813 Q931.3999,98.1719 931.1343,98.4063 Q930.8687,98.6406 930.2593,98.6406 L928.5405,98.6406 Z " fill="#000000"/><text fill="#000000" font-family="sans-serif" font-size="14" font-style="italic" lengthAdjust="spacing" textLength="70.0547" x="948.0874" y="107.7285">Pathfinding</text><line style="stroke:#181818;stroke-width:0.5;" x1="730" x2="1203.7295" y1="118" y2="118"/><ellipse cx="740" cy="132.3047" fill="none" rx="3" ry="3" style="stroke:#038048;stroke-width:1.0;"/><text fill="#000000" font-family="sans-serif" font-size="14" lengthAdjust="spacing" textLength="105.8613" x="749" y="136.5332">finished: boolean</text><ellipse cx="740" cy="149.9141" fill="none" rx="3" ry="3" style="stroke:#038048;stroke-width:1.0;"/><text fill="#000000" font-family="sans-serif" font-size="14" lengthAdjust="spacing" textLength="185.9785" x="749" y="154.1426">startVertex: Vertex {readOnly}</text><ellipse cx="740" cy="167.5234" fill="none" rx="3" ry="3" style="stroke:#038048;stroke-width:1.0;"/><text fill="#000000" font-family="sans-serif" font-size="14" lengthAdjust="spacing" textLength="182.1094" x="749" y="171.752">endVertex: Vertex {readOnly}</text><line style="stroke:#181818;stroke-width:0.5;" x1="730" x2="1203.7295" y1="178.8281" y2="178.8281"/><ellipse cx="740" cy="193.1328" fill="#84BE84" rx="3" ry="3" style="stroke:#038048;stroke-width:1.0;"/><text fill="#000000" font-family="sans-serif" font-size="14" lengthAdjust="spacing" textLength="449.7295" x="749" y="197.3613">Pathfinding(startVertex: Vertex, endVertex: Vertex, startTime: DateTime)</text><ellipse cx="740" cy="210.7422" fill="#84BE84" rx="3" ry="3" style="stroke:#038048;stroke-width:1.0;"/><text fill="#000000" font-family="sans-serif" font-size="14" lengthAdjust="spacing" textLength="118.2412" x="749" y="214.9707">visitNext(): Vertex[]</text><ellipse cx="740" cy="228.3516" fill="#84BE84" rx="3" ry="3" style="stroke:#038048;stroke-width:1.0;"/><text fill="#000000" font-family="sans-serif" font-size="14" lengthAdjust="spacing" textLength="144.7373" x="749" y="232.5801">getDuration(): number?</text><ellipse cx="740" cy="245.9609" fill="#84BE84" rx="3" ry="3" style="stroke:#038048;stroke-width:1.0;"/><text fill="#000000" font-family="sans-serif" font-size="14" lengthAdjust="spacing" textLength="149.4199" x="749" y="250.1895">getPath(): Coordinate[]?</text></g><!--class GraphService--><g id="elem_GraphService"><rect codeLine="76" fill="#F1F1F1" height="83.2188" id="GraphService" rx="2.5" ry="2.5" style="stroke:#181818;stroke-width:0.5;" width="211.9648" x="1285" y="361.5"/><ellipse cx="1343.936" cy="377.5" fill="#ADD1B2" rx="11" ry="11" style="stroke:#181818;stroke-width:1.0;"/><path d="M1346.7017,373.375 Q1346.8579,373.1563 1347.0454,373.0469 Q1347.2329,372.9375 1347.4517,372.9375 Q1347.8267,372.9375 1348.061,373.2031 Q1348.2954,373.4531 1348.2954,374.0625 L1348.2954,375.5156 Q1348.2954,376.125 1348.061,376.3906 Q1347.8267,376.6563 1347.4517,376.6563 Q1347.1079,376.6563 1346.9048,376.4531 Q1346.7017,376.2656 1346.5923,375.75 Q1346.5454,375.3906 1346.3579,375.2031 Q1346.0298,374.8281 1345.4204,374.6094 Q1344.811,374.3906 1344.186,374.3906 Q1343.4204,374.3906 1342.7798,374.7188 Q1342.1548,375.0469 1341.6548,375.7969 Q1341.1704,376.5469 1341.1704,377.5781 L1341.1704,378.6719 Q1341.1704,379.9063 1342.061,380.7344 Q1342.9517,381.5469 1344.5454,381.5469 Q1345.4829,381.5469 1346.1392,381.2969 Q1346.5298,381.1406 1346.9517,380.7031 Q1347.2173,380.4375 1347.3579,380.3594 Q1347.5142,380.2813 1347.7173,380.2813 Q1348.0454,380.2813 1348.2954,380.5469 Q1348.561,380.7969 1348.561,381.1406 Q1348.561,381.4844 1348.2173,381.8906 Q1347.7173,382.4688 1346.9204,382.7969 Q1345.8423,383.25 1344.5454,383.25 Q1343.0298,383.25 1341.8267,382.625 Q1340.8423,382.125 1340.1548,381.0625 Q1339.4673,379.9844 1339.4673,378.7031 L1339.4673,377.5469 Q1339.4673,376.2188 1340.0767,375.0781 Q1340.7017,373.9219 1341.7954,373.3125 Q1342.8892,372.6875 1344.1235,372.6875 Q1344.8579,372.6875 1345.4985,372.8594 Q1346.1548,373.0156 1346.7017,373.375 Z " fill="#000000"/><text fill="#000000" font-family="sans-serif" font-size="14" lengthAdjust="spacing" textLength="85.5928" x="1364.436" y="383.2285">GraphService</text><line style="stroke:#181818;stroke-width:0.5;" x1="1286" x2="1495.9648" y1="393.5" y2="393.5"/><ellipse cx="1296" cy="407.8047" fill="none" rx="3" ry="3" style="stroke:#038048;stroke-width:1.0;"/><text fill="#000000" font-family="sans-serif" font-size="14" lengthAdjust="spacing" textLength="126.7998" x="1305" y="412.0332">startTime: DateTime</text><line style="stroke:#181818;stroke-width:0.5;" x1="1286" x2="1495.9648" y1="419.1094" y2="419.1094"/><ellipse cx="1296" cy="433.4141" fill="#84BE84" rx="3" ry="3" style="stroke:#038048;stroke-width:1.0;"/><text fill="#000000" font-family="sans-serif" font-size="14" lengthAdjust="spacing" textLength="185.9648" x="1305" y="437.6426">setNeighbours(vertex: Vertex)</text></g><!--class Distance--><g id="elem_Distance"><rect codeLine="83" fill="#F1F1F1" height="65.6094" id="Distance" rx="2.5" ry="2.5" style="stroke:#181818;stroke-width:0.5;" width="342.709" x="1285.5" y="138.5"/><ellipse cx="1425.3701" cy="154.5" fill="#ADD1B2" rx="11" ry="11" style="stroke:#181818;stroke-width:1.0;"/><path d="M1428.1357,150.375 Q1428.292,150.1563 1428.4795,150.0469 Q1428.667,149.9375 1428.8857,149.9375 Q1429.2607,149.9375 1429.4951,150.2031 Q1429.7295,150.4531 1429.7295,151.0625 L1429.7295,152.5156 Q1429.7295,153.125 1429.4951,153.3906 Q1429.2607,153.6563 1428.8857,153.6563 Q1428.542,153.6563 1428.3389,153.4531 Q1428.1357,153.2656 1428.0264,152.75 Q1427.9795,152.3906 1427.792,152.2031 Q1427.4639,151.8281 1426.8545,151.6094 Q1426.2451,151.3906 1425.6201,151.3906 Q1424.8545,151.3906 1424.2139,151.7188 Q1423.5889,152.0469 1423.0889,152.7969 Q1422.6045,153.5469 1422.6045,154.5781 L1422.6045,155.6719 Q1422.6045,156.9063 1423.4951,157.7344 Q1424.3857,158.5469 1425.9795,158.5469 Q1426.917,158.5469 1427.5732,158.2969 Q1427.9639,158.1406 1428.3857,157.7031 Q1428.6514,157.4375 1428.792,157.3594 Q1428.9482,157.2813 1429.1514,157.2813 Q1429.4795,157.2813 1429.7295,157.5469 Q1429.9951,157.7969 1429.9951,158.1406 Q1429.9951,158.4844 1429.6514,158.8906 Q1429.1514,159.4688 1428.3545,159.7969 Q1427.2764,160.25 1425.9795,160.25 Q1424.4639,160.25 1423.2607,159.625 Q1422.2764,159.125 1421.5889,158.0625 Q1420.9014,156.9844 1420.9014,155.7031 L1420.9014,154.5469 Q1420.9014,153.2188 1421.5107,152.0781 Q1422.1357,150.9219 1423.2295,150.3125 Q1424.3232,149.6875 1425.5576,149.6875 Q1426.292,149.6875 1426.9326,149.8594 Q1427.5889,150.0156 1428.1357,150.375 Z " fill="#000000"/><text fill="#000000" font-family="sans-serif" font-size="14" lengthAdjust="spacing" textLength="54.4688" x="1445.8701" y="160.2285">Distance</text><line style="stroke:#181818;stroke-width:0.5;" x1="1286.5" x2="1627.209" y1="170.5" y2="170.5"/><line style="stroke:#181818;stroke-width:0.5;" x1="1286.5" x2="1627.209" y1="178.5" y2="178.5"/><ellipse cx="1296.5" cy="192.8047" fill="#84BE84" rx="3" ry="3" style="stroke:#038048;stroke-width:1.0;"/><text fill="#000000" font-family="sans-serif" font-size="14" lengthAdjust="spacing" textLength="316.709" x="1305.5" y="197.0332">distance(from: Coordinate, to: Coordinate): number</text></g><!--reverse link Vertex to DirectedWeightedEdge--><g id="link_Vertex_DirectedWeightedEdge"><path codeLine="30" d="M524.7955,268.0786 C520.4755,277.8686 521.61,276.97 519,287 C514.87,302.86 517.33,319.44 522.84,334.92 " fill="none" id="Vertex-backto-DirectedWeightedEdge" style="stroke:#181818;stroke-width:1.0;"/><polygon fill="none" points="529.64,257.1,523.5582,260.9745,524.7955,268.0786,530.8773,264.2042,529.64,257.1" style="stroke:#181818;stroke-width:1.0;"/><text fill="#000000" font-family="sans-serif" font-size="13" lengthAdjust="spacing" textLength="46.979" x="520" y="301.4951">inEdges</text><text fill="#000000" font-family="sans-serif" font-size="13" lengthAdjust="spacing" textLength="5.0591" x="512.8304" y="324.1105">*</text></g><!--reverse link Vertex to DirectedWeightedEdge--><g id="link_Vertex_DirectedWeightedEdge"><path codeLine="31" d="M575.8341,269.2773 C573.9441,294.8073 572.78,310.51 570.98,334.74 " fill="none" id="Vertex-backto-DirectedWeightedEdge-1" style="stroke:#181818;stroke-width:1.0;"/><polygon fill="none" points="576.72,257.31,572.2879,262.9983,575.8341,269.2773,580.2661,263.5889,576.72,257.31" style="stroke:#181818;stroke-width:1.0;"/><text fill="#000000" font-family="sans-serif" font-size="13" lengthAdjust="spacing" textLength="54.9326" x="576" y="301.4951">outEdges</text><text fill="#000000" font-family="sans-serif" font-size="13" lengthAdjust="spacing" textLength="5.0591" x="566.2357" y="323.9108">*</text></g><!--reverse link Pathfinding to BFS--><g id="link_Pathfinding_BFS"><path codeLine="68" d="M886.5744,271.1679 C861.1444,302.3979 849.64,316.56 849,317.5 C837.7,334.18 826.67,353.79 818.14,369.92 " fill="none" id="Pathfinding-backto-BFS" style="stroke:#181818;stroke-width:1.0;"/><polygon fill="none" points="897.94,257.21,881.9217,267.3793,891.227,274.9564,897.94,257.21" style="stroke:#181818;stroke-width:1.0;"/></g><!--reverse link Pathfinding to Greedy--><g id="link_Pathfinding_Greedy"><path codeLine="69" d="M990.6334,274.8477 C999.6934,314.0477 1005.85,340.72 1012.57,369.84 " fill="none" id="Pathfinding-backto-Greedy" style="stroke:#181818;stroke-width:1.0;"/><polygon fill="none" points="986.58,257.31,984.7875,276.1988,996.4792,273.4966,986.58,257.31" style="stroke:#181818;stroke-width:1.0;"/></g><!--reverse link Pathfinding to Dijkstra--><g id="link_Pathfinding_Dijkstra"><path codeLine="70" d="M939.8359,274.7059 C929.4159,313.9059 922.29,340.72 914.55,369.84 " fill="none" id="Pathfinding-backto-Dijkstra" style="stroke:#181818;stroke-width:1.0;"/><polygon fill="none" points="944.46,257.31,934.0372,273.1645,945.6345,276.2473,944.46,257.31" style="stroke:#181818;stroke-width:1.0;"/></g><!--reverse link Pathfinding to AStar--><g id="link_Pathfinding_AStar"><path codeLine="71" d="M1044.5012,271.6541 C1059.1712,291.1541 1063.52,297.63 1077,317.5 C1088.45,334.37 1100.27,353.82 1109.65,369.8 " fill="none" id="Pathfinding-backto-AStar" style="stroke:#181818;stroke-width:1.0;"/><polygon fill="none" points="1033.68,257.27,1039.7065,275.2611,1049.2959,268.047,1033.68,257.27" style="stroke:#181818;stroke-width:1.0;"/></g><!--reverse link Pathfinding to GraphService--><g id="link_Pathfinding_GraphService"><path codeLine="88" d="M1133.9331,262.8525 C1199.7731,298.4925 1262.78,332.6 1316.08,361.45 " fill="none" id="Pathfinding-backto-GraphService" style="stroke:#181818;stroke-width:1.0;"/><polygon fill="#181818" points="1123.38,257.14,1126.7524,263.5139,1133.9331,262.8525,1130.5607,256.4786,1123.38,257.14" style="stroke:#181818;stroke-width:1.0;"/><text fill="#000000" font-family="sans-serif" font-size="13" lengthAdjust="spacing" textLength="141.6416" x="1205" y="301.4951">graphService {readOnly}</text></g><!--SRC=[bLNDRjim3BxxAOXScdH9q5sD0KNNR4KFsmfaFuUc1zcYRQMsP4Xo-hS-p9wXjrtpOgD_uicD4pI-n14_KkJ7Z-OHBDcAmMJ9D9pxYokjOiso6RDi4IOgL2cp-B18HR38KoPjaQKBgrHgsh_JqdEIYr3TOU1vHt02Le4jj0GLHK3dqeo1OyIArCBx4qAOMo5pHjT0c39ZpgpL8YWiNX9sBXuHJZpFghoC4oXhLGPSQ0ojKDBpSXRUiXZXY-AO6dZoW9ug3fmhfRcGb75pN3xlW4hmGHPPW1gUD3B-JQOFpov0oVq0BenbCiIXiWbgtxbej76iqC-UayrFr1RlEva8xeEXOcMyAv6GbLNwdLBwa2jXX4KA5r0pa4d7b62XALyHTbBh5h8ndJeswWXAOghEsxN4QCyJaNAo3qSRmFMDMx9Kb6cAaQMcDm3V5xmDmY0qwx-XITGZMAQjUbo_jCOCu_MVD5s_43agl-Ganig6abU1woiQFjLa0eFZ0SmgII3_XI9EwFSJ9r7uC12oV3C3ECH95RRsSXlO2txgC6OJjrNND_tDkgi2x9UOKOKk-x9HJH-6YADMxCVq2gDfqcPqhYZlI4XUwR3rhOl- -7dkd9NFT3fj_pU1N8wMjwHeTeZFXKRa3uTudCsfzBSv26bHHopSLMND4fqBa_JDJzEDKgEDZFVGNOD9fc-5EZaDU-uORySQrxby5nc9WpxBMBwDNeMjcluLx-tMU7Q6U5RewlCo76tFVmigKom1hgnF-vXs-VtmcmQCfBFRM3TzjtqZfDs8IWIDd9__xu4vwfK8iRi9BZJBayRI6TaUCbqh4eiqgm4DenckEeqORL_zmufN6sZMV5yxTxRR8z8gSuaTquRRjqpegdhBJHqot7SuhfXrQlKXxfJU2l4V]--></g></svg>