<svg xmlns="http://www.w3.org/2000/svg" xmlns:xlink="http://www.w3.org/1999/xlink" contentStyleType="text/css" height="732px" preserveAspectRatio="none" style="width:1029px;height:732px;background:#FFFFFF;" version="1.1" viewBox="0 0 1029 732" width="1029px" zoomAndPan="magnify"><defs/><g><!--entity Felhaszn?l?--><g id="elem_Felhaszn&#225;l&#243;"><ellipse cx="43.7446" cy="439" fill="#F1F1F1" rx="8" ry="8" style="stroke:#181818;stroke-width:0.5;"/><path d="M43.7446,447 L43.7446,474 M30.7446,455 L56.7446,455 M43.7446,474 L30.7446,489 M43.7446,474 L56.7446,489 " fill="none" style="stroke:#181818;stroke-width:0.5;"/><text fill="#000000" font-family="sans-serif" font-size="14" lengthAdjust="spacing" textLength="75.4893" x="6" y="505.0332">Felhaszn&#225;l&#243;</text></g><g id="elem_Be&#225;ll&#237;t&#225;sok m&#243;dos&#237;t&#225;sa"><ellipse cx="234.8902" cy="302.478" fill="#F1F1F1" rx="92.8902" ry="20.978" style="stroke:#181818;stroke-width:0.5;"/><text fill="#000000" font-family="sans-serif" font-size="14" lengthAdjust="spacing" textLength="144.7441" x="162.5181" y="306.2066">Be&#225;ll&#237;t&#225;sok m&#243;dos&#237;t&#225;sa</text></g><g id="elem_Algoritmus v&#225;laszt&#225;sa"><ellipse cx="583.1759" cy="160.7352" fill="#F1F1F1" rx="89.1759" ry="20.2352" style="stroke:#181818;stroke-width:0.5;"/><text fill="#000000" font-family="sans-serif" font-size="14" lengthAdjust="spacing" textLength="136.165" x="515.0934" y="164.4637">Algoritmus v&#225;laszt&#225;sa</text></g><g id="elem_Moh&#243; algoritmus"><ellipse cx="930.784" cy="23.5568" fill="#F1F1F1" rx="75.784" ry="17.5568" style="stroke:#181818;stroke-width:0.5;"/><text fill="#000000" font-family="sans-serif" font-size="14" lengthAdjust="spacing" textLength="103.4893" x="876.0393" y="28.0734">Moh&#243; algoritmus</text></g><g id="elem_BFS"><ellipse cx="931.2381" cy="91.4517" fill="#F1F1F1" rx="30.7381" ry="15.4517" style="stroke:#181818;stroke-width:0.5;"/><text fill="#000000" font-family="sans-serif" font-size="14" lengthAdjust="spacing" textLength="27.2275" x="917.6243" y="95.1802">BFS</text></g><g id="elem_Dijkstra algoritmus"><ellipse cx="930.8384" cy="160.4677" fill="#F1F1F1" rx="80.3384" ry="18.4677" style="stroke:#181818;stroke-width:0.5;"/><text fill="#000000" font-family="sans-serif" font-size="14" lengthAdjust="spacing" textLength="115.1377" x="872.4305" y="164.4385">Dijkstra algoritmus</text></g><g id="elem_A* algoritmus"><ellipse cx="931.0144" cy="230.6029" fill="#F1F1F1" rx="68.5144" ry="16.1029" style="stroke:#181818;stroke-width:0.5;"/><text fill="#000000" font-family="sans-serif" font-size="14" lengthAdjust="spacing" textLength="83.2549" x="886.387" y="235.1195">A* algoritmus</text></g><g id="elem_Algoritmus param&#233;tereinek m&#243;dos&#237;t&#225;sa"><ellipse cx="583.1499" cy="302.53" fill="#F1F1F1" rx="138.1499" ry="30.03" style="stroke:#181818;stroke-width:0.5;"/><text fill="#000000" font-family="sans-serif" font-size="14" lengthAdjust="spacing" textLength="243.5576" x="461.3711" y="306.2585">Algoritmus param&#233;tereinek m&#243;dos&#237;t&#225;sa</text></g><g id="elem_Maxim&#225;lis s&#233;tat&#225;vols&#225;g"><ellipse cx="930.8812" cy="302.4762" fill="#F1F1F1" rx="92.8812" ry="20.9762" style="stroke:#181818;stroke-width:0.5;"/><text fill="#000000" font-family="sans-serif" font-size="14" lengthAdjust="spacing" textLength="144.7236" x="858.5194" y="306.2048">Maxim&#225;lis s&#233;tat&#225;vols&#225;g</text></g><g id="elem_Heurisztika s&#250;lya"><ellipse cx="931.165" cy="376.733" fill="#F1F1F1" rx="76.665" ry="17.733" style="stroke:#181818;stroke-width:0.5;"/><text fill="#000000" font-family="sans-serif" font-size="14" lengthAdjust="spacing" textLength="105.8135" x="875.6861" y="381.1498">Heurisztika s&#250;lya</text></g><g id="elem_&#218;tvonaltervez&#233;s"><ellipse cx="235.1216" cy="469.3243" fill="#F1F1F1" rx="74.6216" ry="17.3243" style="stroke:#181818;stroke-width:0.5;"/><text fill="#000000" font-family="sans-serif" font-size="14" lengthAdjust="spacing" textLength="100.3789" x="181.9321" y="473.8409">&#218;tvonaltervez&#233;s</text></g><g id="elem_Indul&#225;si id&#337; kiv&#225;laszt&#225;sa"><ellipse cx="583.1175" cy="389.5235" fill="#F1F1F1" rx="95.6175" ry="21.5235" style="stroke:#181818;stroke-width:0.5;"/><text fill="#000000" font-family="sans-serif" font-size="14" lengthAdjust="spacing" textLength="150.9717" x="507.6317" y="393.252">Indul&#225;si id&#337; kiv&#225;laszt&#225;sa</text></g><g id="elem_Indul&#243; &#225;llom&#225;s kiv&#225;laszt&#225;sa"><ellipse cx="582.7784" cy="469.2557" fill="#F1F1F1" rx="104.2784" ry="23.2557" style="stroke:#181818;stroke-width:0.5;"/><text fill="#000000" font-family="sans-serif" font-size="14" lengthAdjust="spacing" textLength="170.4199" x="497.5685" y="472.9842">Indul&#243; &#225;llom&#225;s kiv&#225;laszt&#225;sa</text></g><g id="elem_&#201;rkez&#233;si &#225;llom&#225;s kiv&#225;laszt&#225;sa"><ellipse cx="582.8278" cy="552.6656" fill="#F1F1F1" rx="111.3278" ry="24.6656" style="stroke:#181818;stroke-width:0.5;"/><text fill="#000000" font-family="sans-serif" font-size="14" lengthAdjust="spacing" textLength="185.958" x="489.8488" y="556.3941">&#201;rkez&#233;si &#225;llom&#225;s kiv&#225;laszt&#225;sa</text></g><g id="elem_&#218;tvonal megtekint&#233;se"><ellipse cx="235.0157" cy="631.6031" fill="#F1F1F1" rx="88.5157" ry="20.1031" style="stroke:#181818;stroke-width:0.5;"/><text fill="#000000" font-family="sans-serif" font-size="14" lengthAdjust="spacing" textLength="134.627" x="167.7022" y="635.3316">&#218;tvonal megtekint&#233;se</text></g><g id="elem_Tervez&#233;s anim&#225;l&#225;sa"><ellipse cx="583.0426" cy="631.3085" fill="#F1F1F1" rx="84.5426" ry="19.3085" style="stroke:#181818;stroke-width:0.5;"/><text fill="#000000" font-family="sans-serif" font-size="14" lengthAdjust="spacing" textLength="125.2754" x="520.4049" y="635.037">Tervez&#233;s anim&#225;l&#225;sa</text></g><g id="elem_Tervez&#233;s l&#233;p&#233;senk&#233;nt"><ellipse cx="583.0199" cy="706.304" fill="#F1F1F1" rx="89.5199" ry="20.304" style="stroke:#181818;stroke-width:0.5;"/><text fill="#000000" font-family="sans-serif" font-size="14" lengthAdjust="spacing" textLength="136.9648" x="514.5375" y="710.0325">Tervez&#233;s l&#233;p&#233;senk&#233;nt</text></g><!--link Felhaszn?l? to Be?ll?t?sok m?dos?t?sa--><g id="link_Felhaszn&#225;l&#243;_Be&#225;ll&#237;t&#225;sok m&#243;dos&#237;t&#225;sa"><path d="M81.04,437.3 C119.33,403.56 173.8183,355.5367 206.2183,326.9867 " fill="none" id="Felhaszn&#225;l&#243;-to-Be&#225;ll&#237;t&#225;sok m&#243;dos&#237;t&#225;sa" style="stroke:#181818;stroke-width:1;stroke-dasharray:7.0,7.0;"/><polygon fill="#181818" points="210.72,323.02,201.323,325.969,206.9686,326.3256,206.612,331.9712,210.72,323.02" style="stroke:#181818;stroke-width:1;"/></g><!--reverse link Be?ll?t?sok m?dos?t?sa to Algoritmus v?laszt?sa--><g id="link_Be&#225;ll&#237;t&#225;sok m&#243;dos&#237;t&#225;sa_Algoritmus v&#225;laszt&#225;sa"><path d="M286.4307,281.8018 C353.5307,254.2618 473.6,204.99 539.37,177.99 " fill="none" id="Be&#225;ll&#237;t&#225;sok m&#243;dos&#237;t&#225;sa-backto-Algoritmus v&#225;laszt&#225;sa" style="stroke:#181818;stroke-width:1;stroke-dasharray:7.0,7.0;"/><polygon fill="#181818" points="280.88,284.08,290.7248,284.3632,285.5056,282.1815,287.6872,276.9623,280.88,284.08" style="stroke:#181818;stroke-width:1;"/><text fill="#000000" font-family="sans-serif" font-size="13" lengthAdjust="spacing" textLength="55.6563" x="359" y="227.9951">&#171;include&#187;</text></g><!--reverse link Algoritmus v?laszt?sa to Moh? algoritmus--><g id="link_Algoritmus v&#225;laszt&#225;sa_Moh&#243; algoritmus"><path d="M632.0404,140.7312 C665.7504,126.8912 708.55,109.44 751,92.5 C789.56,77.12 799.27,73.44 838,58.5 C855.22,51.86 874.28,44.59 890.57,38.41 " fill="none" id="Algoritmus v&#225;laszt&#225;sa-backto-Moh&#243; algoritmus" style="stroke:#181818;stroke-width:1;stroke-dasharray:7.0,7.0;"/><polygon fill="#181818" points="626.49,143.01,636.3348,143.2921,631.1153,141.111,633.2964,135.8915,626.49,143.01" style="stroke:#181818;stroke-width:1;"/><text fill="#000000" font-family="sans-serif" font-size="13" lengthAdjust="spacing" textLength="55.6563" x="752" y="66.9951">&#171;include&#187;</text></g><!--reverse link Algoritmus v?laszt?sa to BFS--><g id="link_Algoritmus v&#225;laszt&#225;sa_BFS"><path d="M656.184,146.1061 C732.324,130.9161 847.81,107.89 902.13,97.06 " fill="none" id="Algoritmus v&#225;laszt&#225;sa-backto-BFS" style="stroke:#181818;stroke-width:1;stroke-dasharray:7.0,7.0;"/><polygon fill="#181818" points="650.3,147.28,659.9087,149.4419,655.2034,146.3018,658.3435,141.5965,650.3,147.28" style="stroke:#181818;stroke-width:1;"/><text fill="#000000" font-family="sans-serif" font-size="13" lengthAdjust="spacing" textLength="55.6563" x="752" y="114.9951">&#171;include&#187;</text></g><!--reverse link Algoritmus v?laszt?sa to Dijkstra algoritmus--><g id="link_Algoritmus v&#225;laszt&#225;sa_Dijkstra algoritmus"><path d="M678.21,160.5 C733.07,160.5 797.04,160.5 850.24,160.5 " fill="none" id="Algoritmus v&#225;laszt&#225;sa-backto-Dijkstra algoritmus" style="stroke:#181818;stroke-width:1;stroke-dasharray:7.0,7.0;"/><polygon fill="#181818" points="672.21,160.5,681.21,164.5,677.21,160.5,681.21,156.5,672.21,160.5" style="stroke:#181818;stroke-width:1;"/><text fill="#000000" font-family="sans-serif" font-size="13" lengthAdjust="spacing" textLength="55.6563" x="752" y="156.9951">&#171;include&#187;</text></g><!--reverse link Algoritmus v?laszt?sa to A* algoritmus--><g id="link_Algoritmus v&#225;laszt&#225;sa_A* algoritmus"><path d="M655.7708,175.0199 C722.3408,188.4899 817.91,207.82 878.71,220.12 " fill="none" id="Algoritmus v&#225;laszt&#225;sa-backto-A* algoritmus" style="stroke:#181818;stroke-width:1;stroke-dasharray:7.0,7.0;"/><polygon fill="#181818" points="649.89,173.83,657.9179,179.5355,654.7907,174.8216,659.5045,171.6944,649.89,173.83" style="stroke:#181818;stroke-width:1;"/><text fill="#000000" font-family="sans-serif" font-size="13" lengthAdjust="spacing" textLength="55.6563" x="752" y="191.9951">&#171;include&#187;</text></g><!--reverse link Be?ll?t?sok m?dos?t?sa to Algoritmus param?tereinek m?dos?t?sa--><g id="link_Be&#225;ll&#237;t&#225;sok m&#243;dos&#237;t&#225;sa_Algoritmus param&#233;tereinek m&#243;dos&#237;t&#225;sa"><path d="M334.27,302.5 C370,302.5 405.66,302.5 444.77,302.5 " fill="none" id="Be&#225;ll&#237;t&#225;sok m&#243;dos&#237;t&#225;sa-backto-Algoritmus param&#233;tereinek m&#243;dos&#237;t&#225;sa" style="stroke:#181818;stroke-width:1;stroke-dasharray:7.0,7.0;"/><polygon fill="#181818" points="328.27,302.5,337.27,306.5,333.27,302.5,337.27,298.5,328.27,302.5" style="stroke:#181818;stroke-width:1;"/><text fill="#000000" font-family="sans-serif" font-size="13" lengthAdjust="spacing" textLength="55.6563" x="359" y="298.9951">&#171;include&#187;</text></g><!--reverse link Algoritmus param?tereinek m?dos?t?sa to Maxim?lis s?tat?vols?g--><g id="link_Algoritmus param&#233;tereinek m&#243;dos&#237;t&#225;sa_Maxim&#225;lis s&#233;tat&#225;vols&#225;g"><path d="M727.25,302.5 C766.4,302.5 802.1,302.5 837.86,302.5 " fill="none" id="Algoritmus param&#233;tereinek m&#243;dos&#237;t&#225;sa-backto-Maxim&#225;lis s&#233;tat&#225;vols&#225;g" style="stroke:#181818;stroke-width:1;stroke-dasharray:7.0,7.0;"/><polygon fill="#181818" points="721.25,302.5,730.25,306.5,726.25,302.5,730.25,298.5,721.25,302.5" style="stroke:#181818;stroke-width:1;"/><text fill="#000000" font-family="sans-serif" font-size="13" lengthAdjust="spacing" textLength="55.6563" x="752" y="298.9951">&#171;include&#187;</text></g><!--reverse link Algoritmus param?tereinek m?dos?t?sa to Heurisztika s?lya--><g id="link_Algoritmus param&#233;tereinek m&#243;dos&#237;t&#225;sa_Heurisztika s&#250;lya"><path d="M688.0874,324.7646 C750.4274,338.0946 822.93,353.6 874.65,364.66 " fill="none" id="Algoritmus param&#233;tereinek m&#243;dos&#237;t&#225;sa-backto-Heurisztika s&#250;lya" style="stroke:#181818;stroke-width:1;stroke-dasharray:7.0,7.0;"/><polygon fill="#181818" points="682.22,323.51,690.1846,329.3035,687.1095,324.5555,691.8574,321.4803,682.22,323.51" style="stroke:#181818;stroke-width:1;"/><text fill="#000000" font-family="sans-serif" font-size="13" lengthAdjust="spacing" textLength="55.6563" x="752" y="335.9951">&#171;include&#187;</text></g><!--link Felhaszn?l? to ?tvonaltervez?s--><g id="link_Felhaszn&#225;l&#243;_&#218;tvonaltervez&#233;s"><path d="M81.04,469.5 C103.52,469.5 127.13,469.5 154.31,469.5 " fill="none" id="Felhaszn&#225;l&#243;-to-&#218;tvonaltervez&#233;s" style="stroke:#181818;stroke-width:1;stroke-dasharray:7.0,7.0;"/><polygon fill="#181818" points="160.31,469.5,151.31,465.5,155.31,469.5,151.31,473.5,160.31,469.5" style="stroke:#181818;stroke-width:1;"/></g><!--reverse link ?tvonaltervez?s to Indul?si id? kiv?laszt?sa--><g id="link_&#218;tvonaltervez&#233;s_Indul&#225;si id&#337; kiv&#225;laszt&#225;sa"><path d="M294.7758,455.9085 C355.6358,441.8385 449.77,420.07 515.75,404.82 " fill="none" id="&#218;tvonaltervez&#233;s-backto-Indul&#225;si id&#337; kiv&#225;laszt&#225;sa" style="stroke:#181818;stroke-width:1;stroke-dasharray:7.0,7.0;"/><polygon fill="#181818" points="288.93,457.26,298.5997,459.13,293.8015,456.1338,296.7977,451.3356,288.93,457.26" style="stroke:#181818;stroke-width:1;"/><text fill="#000000" font-family="sans-serif" font-size="13" lengthAdjust="spacing" textLength="53.4917" x="360" y="425.9951">&#171;extend&#187;</text></g><!--reverse link ?tvonaltervez?s to Indul? ?llom?s kiv?laszt?sa--><g id="link_&#218;tvonaltervez&#233;s_Indul&#243; &#225;llom&#225;s kiv&#225;laszt&#225;sa"><path d="M315.8,469.5 C364.92,469.5 424.16,469.5 478.45,469.5 " fill="none" id="&#218;tvonaltervez&#233;s-backto-Indul&#243; &#225;llom&#225;s kiv&#225;laszt&#225;sa" style="stroke:#181818;stroke-width:1;stroke-dasharray:7.0,7.0;"/><polygon fill="#181818" points="309.8,469.5,318.8,473.5,314.8,469.5,318.8,465.5,309.8,469.5" style="stroke:#181818;stroke-width:1;"/><text fill="#000000" font-family="sans-serif" font-size="13" lengthAdjust="spacing" textLength="53.4917" x="360" y="465.9951">&#171;extend&#187;</text></g><!--reverse link ?tvonaltervez?s to ?rkez?si ?llom?s kiv?laszt?sa--><g id="link_&#218;tvonaltervez&#233;s_&#201;rkez&#233;si &#225;llom&#225;s kiv&#225;laszt&#225;sa"><path d="M293.6345,483.3294 C351.7945,497.2794 440.84,518.64 507.08,534.53 " fill="none" id="&#218;tvonaltervez&#233;s-backto-&#201;rkez&#233;si &#225;llom&#225;s kiv&#225;laszt&#225;sa" style="stroke:#181818;stroke-width:1;stroke-dasharray:7.0,7.0;"/><polygon fill="#181818" points="287.8,481.93,295.6188,487.9188,292.6621,483.0962,297.4847,480.1395,287.8,481.93" style="stroke:#181818;stroke-width:1;"/><text fill="#000000" font-family="sans-serif" font-size="13" lengthAdjust="spacing" textLength="53.4917" x="360" y="497.9951">&#171;extend&#187;</text></g><!--link Felhaszn?l? to ?tvonal megtekint?se--><g id="link_Felhaszn&#225;l&#243;_&#218;tvonal megtekint&#233;se"><path d="M81.04,500.74 C119.54,533.65 174.419,580.5717 206.699,608.1617 " fill="none" id="Felhaszn&#225;l&#243;-to-&#218;tvonal megtekint&#233;se" style="stroke:#181818;stroke-width:1;stroke-dasharray:7.0,7.0;"/><polygon fill="#181818" points="211.26,612.06,207.0174,603.1718,207.4591,608.8114,201.8196,609.2532,211.26,612.06" style="stroke:#181818;stroke-width:1;"/></g><!--reverse link ?tvonal megtekint?se to Tervez?s anim?l?sa--><g id="link_&#218;tvonal megtekint&#233;se_Tervez&#233;s anim&#225;l&#225;sa"><path d="M329.76,631.5 C383.31,631.5 445.4,631.5 498.21,631.5 " fill="none" id="&#218;tvonal megtekint&#233;se-backto-Tervez&#233;s anim&#225;l&#225;sa" style="stroke:#181818;stroke-width:1;stroke-dasharray:7.0,7.0;"/><polygon fill="#181818" points="323.76,631.5,332.76,635.5,328.76,631.5,332.76,627.5,323.76,631.5" style="stroke:#181818;stroke-width:1;"/><text fill="#000000" font-family="sans-serif" font-size="13" lengthAdjust="spacing" textLength="55.6563" x="359" y="627.9951">&#171;include&#187;</text></g><!--reverse link ?tvonal megtekint?se to Tervez?s l?p?senk?nt--><g id="link_&#218;tvonal megtekint&#233;se_Tervez&#233;s l&#233;p&#233;senk&#233;nt"><path d="M305.3239,646.5305 C367.2639,659.9505 455.17,679.01 517.47,692.51 " fill="none" id="&#218;tvonal megtekint&#233;se-backto-Tervez&#233;s l&#233;p&#233;senk&#233;nt" style="stroke:#181818;stroke-width:1;stroke-dasharray:7.0,7.0;"/><polygon fill="#181818" points="299.46,645.26,307.4089,651.075,304.3466,646.3187,309.1029,643.2564,299.46,645.26" style="stroke:#181818;stroke-width:1;"/><text fill="#000000" font-family="sans-serif" font-size="13" lengthAdjust="spacing" textLength="55.6563" x="359" y="655.9951">&#171;include&#187;</text></g><!--SRC=[fPAnJW9148RxUuhf51Fk0GWX0OtHmiH4osk6k_4ORc-NxCwTm1jOsjfHKbZHsMvyBnTGOm1Hj9pzPxv_ykySmH1hXEOGBPosacjhSelb6GecwS2aHg7G957SJqOAjLIbIiGOvJxBU3dP775gxgaVHOhk1CI0vNmWaB6bLDZeg7LEQe1kglrC-KKhsdo0EEx0SOz2fVop-9ap1PH-aHctBh4HHVjrQCSn77TLRYnBMJceGtDmU5TRq6wpJbMLKQSJVT-teboPWLy0VlOSEDuxlpbmueo7XHEBV_VidkoPFJIw4OOhy7CXIwnfg_txnNuON8UBOox3Dkp0XLOCMXrEoi_o_v8lgB8SOk420_f5JRPstNrt_abger45U4rJFtUDQCVRskDIPvKAdWoSlJv2mTjdHcCXdItttmzPmF9FJCZ2_P7Z7songlctgFq1G4cvKC5Q0fE-fB0XhDrlFxO1rAiVtNaTlqGeFnyj1LtukPODoXi0]--></g></svg>